<?xml version="1.0" encoding="UTF-8" standalone="no"?>
<!DOCTYPE svg PUBLIC "-//W3C//DTD SVG 1.1//EN"
 "http://www.w3.org/Graphics/SVG/1.1/DTD/svg11.dtd">
<!-- Generated by graphviz version 2.38.0 (20140413.2041)
 -->
<!-- Title: snakemake_dag Pages: 1 -->
<svg width="2065pt" height="620pt"
 viewBox="0.00 0.00 2064.61 620.00" xmlns="http://www.w3.org/2000/svg" xmlns:xlink="http://www.w3.org/1999/xlink">
<g id="graph0" class="graph" transform="scale(1 1) rotate(0) translate(4 616)">
<title>snakemake_dag</title>
<polygon fill="white" stroke="none" points="-4,4 -4,-616 2060.61,-616 2060.61,4 -4,4"/>
<!-- 0 -->
<g id="node1" class="node"><title>0</title>
<path fill="none" stroke="#d88556" stroke-width="2" d="M934.582,-36C934.582,-36 904.582,-36 904.582,-36 898.582,-36 892.582,-30 892.582,-24 892.582,-24 892.582,-12 892.582,-12 892.582,-6 898.582,-0 904.582,-0 904.582,-0 934.582,-0 934.582,-0 940.582,-0 946.582,-6 946.582,-12 946.582,-12 946.582,-24 946.582,-24 946.582,-30 940.582,-36 934.582,-36"/>
<text text-anchor="middle" x="919.582" y="-15" font-family="sans" font-size="10.00">all</text>
</g>
<!-- 1 -->
<g id="node2" class="node"><title>1</title>
<path fill="none" stroke="#56d892" stroke-width="2" stroke-dasharray="5,2" d="M919.546,-468C919.546,-468 807.619,-468 807.619,-468 801.619,-468 795.619,-462 795.619,-456 795.619,-456 795.619,-444 795.619,-444 795.619,-438 801.619,-432 807.619,-432 807.619,-432 919.546,-432 919.546,-432 925.546,-432 931.546,-438 931.546,-444 931.546,-444 931.546,-456 931.546,-456 931.546,-462 925.546,-468 919.546,-468"/>
<text text-anchor="middle" x="863.582" y="-453" font-family="sans" font-size="10.00">raw_make_link_fastq_sample</text>
<text text-anchor="middle" x="863.582" y="-441" font-family="sans" font-size="10.00">sample: sample4</text>
</g>
<!-- 10 -->
<g id="node11" class="node"><title>10</title>
<path fill="none" stroke="#d89c56" stroke-width="2" stroke-dasharray="5,2" d="M1676.02,-180C1676.02,-180 1529.15,-180 1529.15,-180 1523.15,-180 1517.15,-174 1517.15,-168 1517.15,-168 1517.15,-156 1517.15,-156 1517.15,-150 1523.15,-144 1529.15,-144 1529.15,-144 1676.02,-144 1676.02,-144 1682.02,-144 1688.02,-150 1688.02,-156 1688.02,-156 1688.02,-168 1688.02,-168 1688.02,-174 1682.02,-180 1676.02,-180"/>
<text text-anchor="middle" x="1602.58" y="-159" font-family="sans" font-size="10.00">report_fastqc_raw_from_fastq_sample</text>
</g>
<!-- 1&#45;&gt;10 -->
<g id="edge22" class="edge"><title>1&#45;&gt;10</title>
<path fill="none" stroke="grey" stroke-width="2" d="M931.62,-437.993C980.041,-429.179 1046.24,-415.121 1102.58,-396 1281.12,-335.414 1480.76,-230.216 1563.45,-184.853"/>
<polygon fill="grey" stroke="grey" stroke-width="2" points="1565.18,-187.897 1572.26,-180.009 1561.81,-181.765 1565.18,-187.897"/>
</g>
<!-- 26 -->
<g id="node27" class="node"><title>26</title>
<path fill="none" stroke="#56d873" stroke-width="2" stroke-dasharray="5,2" d="M731.423,-396C731.423,-396 595.742,-396 595.742,-396 589.742,-396 583.742,-390 583.742,-384 583.742,-384 583.742,-372 583.742,-372 583.742,-366 589.742,-360 595.742,-360 595.742,-360 731.423,-360 731.423,-360 737.423,-360 743.423,-366 743.423,-372 743.423,-372 743.423,-384 743.423,-384 743.423,-390 737.423,-396 731.423,-396"/>
<text text-anchor="middle" x="663.582" y="-375" font-family="sans" font-size="10.00">qc_decompress_from_fastq_sample</text>
</g>
<!-- 1&#45;&gt;26 -->
<g id="edge43" class="edge"><title>1&#45;&gt;26</title>
<path fill="none" stroke="grey" stroke-width="2" d="M814.913,-431.966C786.968,-422.185 751.687,-409.836 722.221,-399.524"/>
<polygon fill="grey" stroke="grey" stroke-width="2" points="723.065,-396.111 712.471,-396.111 720.753,-402.718 723.065,-396.111"/>
</g>
<!-- 2 -->
<g id="node3" class="node"><title>2</title>
<path fill="none" stroke="#afd856" stroke-width="2" stroke-dasharray="5,2" d="M897.943,-540C897.943,-540 817.222,-540 817.222,-540 811.222,-540 805.222,-534 805.222,-528 805.222,-528 805.222,-516 805.222,-516 805.222,-510 811.222,-504 817.222,-504 817.222,-504 897.943,-504 897.943,-504 903.943,-504 909.943,-510 909.943,-516 909.943,-516 909.943,-528 909.943,-528 909.943,-534 903.943,-540 897.943,-540"/>
<text text-anchor="middle" x="857.582" y="-519" font-family="sans" font-size="10.00">qc_pyrobayes_sample</text>
</g>
<!-- 14 -->
<g id="node15" class="node"><title>14</title>
<path fill="none" stroke="#56a9d8" stroke-width="2" stroke-dasharray="5,2" d="M574.498,-468C574.498,-468 472.667,-468 472.667,-468 466.667,-468 460.667,-462 460.667,-456 460.667,-456 460.667,-444 460.667,-444 460.667,-438 466.667,-432 472.667,-432 472.667,-432 574.498,-432 574.498,-432 580.498,-432 586.498,-438 586.498,-444 586.498,-444 586.498,-456 586.498,-456 586.498,-462 580.498,-468 574.498,-468"/>
<text text-anchor="middle" x="523.582" y="-447" font-family="sans" font-size="10.00">qc_join_fasta_qual_sample</text>
</g>
<!-- 2&#45;&gt;14 -->
<g id="edge26" class="edge"><title>2&#45;&gt;14</title>
<path fill="none" stroke="grey" stroke-width="2" d="M805.028,-509.985C748.79,-498.199 659.19,-479.421 596.226,-466.225"/>
<polygon fill="grey" stroke="grey" stroke-width="2" points="596.864,-462.782 586.358,-464.157 595.428,-469.633 596.864,-462.782"/>
</g>
<!-- 3 -->
<g id="node4" class="node"><title>3</title>
<path fill="none" stroke="#d86656" stroke-width="2" stroke-dasharray="5,2" d="M1243.16,-540C1243.16,-540 1150.01,-540 1150.01,-540 1144.01,-540 1138.01,-534 1138.01,-528 1138.01,-528 1138.01,-516 1138.01,-516 1138.01,-510 1144.01,-504 1150.01,-504 1150.01,-504 1243.16,-504 1243.16,-504 1249.16,-504 1255.16,-510 1255.16,-516 1255.16,-516 1255.16,-528 1255.16,-528 1255.16,-534 1249.16,-540 1243.16,-540"/>
<text text-anchor="middle" x="1196.58" y="-519" font-family="sans" font-size="10.00">raw_sff_to_fastq_sample</text>
</g>
<!-- 8 -->
<g id="node9" class="node"><title>8</title>
<path fill="none" stroke="#56d8d0" stroke-width="2" stroke-dasharray="5,2" d="M1487.63,-180C1487.63,-180 1349.54,-180 1349.54,-180 1343.54,-180 1337.54,-174 1337.54,-168 1337.54,-168 1337.54,-156 1337.54,-156 1337.54,-150 1343.54,-144 1349.54,-144 1349.54,-144 1487.63,-144 1487.63,-144 1493.63,-144 1499.63,-150 1499.63,-156 1499.63,-156 1499.63,-168 1499.63,-168 1499.63,-174 1493.63,-180 1487.63,-180"/>
<text text-anchor="middle" x="1418.58" y="-159" font-family="sans" font-size="10.00">report_fastqc_raw_from_sff_sample</text>
</g>
<!-- 3&#45;&gt;8 -->
<g id="edge19" class="edge"><title>3&#45;&gt;8</title>
<path fill="none" stroke="grey" stroke-width="2" d="M1238.6,-503.945C1302.96,-476.482 1418.58,-421.263 1418.58,-379 1418.58,-379 1418.58,-379 1418.58,-305 1418.58,-264.996 1418.58,-218.653 1418.58,-190.08"/>
<polygon fill="grey" stroke="grey" stroke-width="2" points="1422.08,-190.049 1418.58,-180.049 1415.08,-190.049 1422.08,-190.049"/>
</g>
<!-- 4 -->
<g id="node5" class="node"><title>4</title>
<path fill="none" stroke="#d8ac56" stroke-width="2" d="M171.248,-180C171.248,-180 11.9174,-180 11.9174,-180 5.91743,-180 -0.0825744,-174 -0.0825744,-168 -0.0825744,-168 -0.0825744,-156 -0.0825744,-156 -0.0825744,-150 5.91743,-144 11.9174,-144 11.9174,-144 171.248,-144 171.248,-144 177.248,-144 183.248,-150 183.248,-156 183.248,-156 183.248,-168 183.248,-168 183.248,-174 177.248,-180 171.248,-180"/>
<text text-anchor="middle" x="91.5825" y="-159" font-family="sans" font-size="10.00">report_fastqc_snowhite_from_sff_sample</text>
</g>
<!-- 6 -->
<g id="node7" class="node"><title>6</title>
<path fill="none" stroke="#56d882" stroke-width="2" d="M718.619,-108C718.619,-108 626.546,-108 626.546,-108 620.546,-108 614.546,-102 614.546,-96 614.546,-96 614.546,-84 614.546,-84 614.546,-78 620.546,-72 626.546,-72 626.546,-72 718.619,-72 718.619,-72 724.619,-72 730.619,-78 730.619,-84 730.619,-84 730.619,-96 730.619,-96 730.619,-102 724.619,-108 718.619,-108"/>
<text text-anchor="middle" x="672.582" y="-87" font-family="sans" font-size="10.00">report_multiqc_snowhite</text>
</g>
<!-- 4&#45;&gt;6 -->
<g id="edge17" class="edge"><title>4&#45;&gt;6</title>
<path fill="none" stroke="grey" stroke-width="2" d="M183.195,-145.264C186.36,-144.821 189.496,-144.398 192.582,-144 369.613,-121.169 416.079,-134.599 592.582,-108 596.422,-107.421 600.353,-106.773 604.314,-106.075"/>
<polygon fill="grey" stroke="grey" stroke-width="2" points="604.985,-109.51 614.183,-104.253 603.714,-102.627 604.985,-109.51"/>
</g>
<!-- 30 -->
<g id="node31" class="node"><title>30</title>
<path fill="none" stroke="#9fd856" stroke-width="2" d="M437.823,-108C437.823,-108 313.342,-108 313.342,-108 307.342,-108 301.342,-102 301.342,-96 301.342,-96 301.342,-84 301.342,-84 301.342,-78 307.342,-72 313.342,-72 313.342,-72 437.823,-72 437.823,-72 443.823,-72 449.823,-78 449.823,-84 449.823,-84 449.823,-96 449.823,-96 449.823,-102 443.823,-108 437.823,-108"/>
<text text-anchor="middle" x="375.582" y="-87" font-family="sans" font-size="10.00">report_multiqc_from_sff_sample</text>
</g>
<!-- 4&#45;&gt;30 -->
<g id="edge49" class="edge"><title>4&#45;&gt;30</title>
<path fill="none" stroke="grey" stroke-width="2" d="M160.694,-143.966C201.669,-133.866 253.753,-121.028 296.382,-110.521"/>
<polygon fill="grey" stroke="grey" stroke-width="2" points="297.29,-113.902 306.162,-108.111 295.614,-107.106 297.29,-113.902"/>
</g>
<!-- 31 -->
<g id="node32" class="node"><title>31</title>
<path fill="none" stroke="#d87556" stroke-width="2" d="M938.136,-108C938.136,-108 901.029,-108 901.029,-108 895.029,-108 889.029,-102 889.029,-96 889.029,-96 889.029,-84 889.029,-84 889.029,-78 895.029,-72 901.029,-72 901.029,-72 938.136,-72 938.136,-72 944.136,-72 950.136,-78 950.136,-84 950.136,-84 950.136,-96 950.136,-96 950.136,-102 944.136,-108 938.136,-108"/>
<text text-anchor="middle" x="919.582" y="-87" font-family="sans" font-size="10.00">multiqc_all</text>
</g>
<!-- 4&#45;&gt;31 -->
<g id="edge57" class="edge"><title>4&#45;&gt;31</title>
<path fill="none" stroke="grey" stroke-width="2" d="M183.177,-145.113C186.347,-144.713 189.489,-144.34 192.582,-144 493.237,-110.93 579.826,-175.432 879.107,-107.54"/>
<polygon fill="grey" stroke="grey" stroke-width="2" points="879.971,-110.933 888.932,-105.281 878.402,-104.111 879.971,-110.933"/>
</g>
<!-- 5 -->
<g id="node6" class="node"><title>5</title>
<path fill="none" stroke="#56d873" stroke-width="2" stroke-dasharray="5,2" d="M1378.42,-396C1378.42,-396 1242.74,-396 1242.74,-396 1236.74,-396 1230.74,-390 1230.74,-384 1230.74,-384 1230.74,-372 1230.74,-372 1230.74,-366 1236.74,-360 1242.74,-360 1242.74,-360 1378.42,-360 1378.42,-360 1384.42,-360 1390.42,-366 1390.42,-372 1390.42,-372 1390.42,-384 1390.42,-384 1390.42,-390 1384.42,-396 1378.42,-396"/>
<text text-anchor="middle" x="1310.58" y="-375" font-family="sans" font-size="10.00">qc_decompress_from_fastq_sample</text>
</g>
<!-- 29 -->
<g id="node30" class="node"><title>29</title>
<path fill="none" stroke="#80d856" stroke-width="2" stroke-dasharray="5,2" d="M1058.82,-324C1058.82,-324 934.34,-324 934.34,-324 928.34,-324 922.34,-318 922.34,-312 922.34,-312 922.34,-300 922.34,-300 922.34,-294 928.34,-288 934.34,-288 934.34,-288 1058.82,-288 1058.82,-288 1064.82,-288 1070.82,-294 1070.82,-300 1070.82,-300 1070.82,-312 1070.82,-312 1070.82,-318 1064.82,-324 1058.82,-324"/>
<text text-anchor="middle" x="996.582" y="-303" font-family="sans" font-size="10.00">qc_snowhite_from_fastq_sample</text>
</g>
<!-- 5&#45;&gt;29 -->
<g id="edge46" class="edge"><title>5&#45;&gt;29</title>
<path fill="none" stroke="grey" stroke-width="2" d="M1234.17,-359.966C1187.82,-349.632 1128.61,-336.433 1080.89,-325.795"/>
<polygon fill="grey" stroke="grey" stroke-width="2" points="1081.42,-322.326 1070.89,-323.566 1079.89,-329.159 1081.42,-322.326"/>
</g>
<!-- 6&#45;&gt;0 -->
<g id="edge1" class="edge"><title>6&#45;&gt;0</title>
<path fill="none" stroke="grey" stroke-width="2" d="M730.805,-72.4996C777.876,-59.1597 842.701,-40.7884 882.833,-29.4148"/>
<polygon fill="grey" stroke="grey" stroke-width="2" points="883.812,-32.7753 892.479,-26.6812 881.903,-26.0406 883.812,-32.7753"/>
</g>
<!-- 7 -->
<g id="node8" class="node"><title>7</title>
<path fill="none" stroke="#d6d856" stroke-width="2" d="M572.002,-108C572.002,-108 505.163,-108 505.163,-108 499.163,-108 493.163,-102 493.163,-96 493.163,-96 493.163,-84 493.163,-84 493.163,-78 499.163,-72 505.163,-72 505.163,-72 572.002,-72 572.002,-72 578.002,-72 584.002,-78 584.002,-84 584.002,-84 584.002,-96 584.002,-96 584.002,-102 578.002,-108 572.002,-108"/>
<text text-anchor="middle" x="538.582" y="-87" font-family="sans" font-size="10.00">assembly_newbler</text>
</g>
<!-- 7&#45;&gt;0 -->
<g id="edge9" class="edge"><title>7&#45;&gt;0</title>
<path fill="none" stroke="grey" stroke-width="2" d="M583.877,-76.9767C591.114,-75.209 598.537,-73.4858 605.582,-72 705.093,-51.0136 823.726,-32.8213 882.617,-24.2438"/>
<polygon fill="grey" stroke="grey" stroke-width="2" points="883.166,-27.7009 892.562,-22.8043 882.163,-20.7731 883.166,-27.7009"/>
</g>
<!-- 8&#45;&gt;30 -->
<g id="edge50" class="edge"><title>8&#45;&gt;30</title>
<path fill="none" stroke="grey" stroke-width="2" d="M1337.23,-145.089C1334.31,-144.693 1331.43,-144.327 1328.58,-144 955.596,-101.045 858.208,-144.987 484.582,-108 476.588,-107.209 468.287,-106.22 459.995,-105.12"/>
<polygon fill="grey" stroke="grey" stroke-width="2" points="460.29,-101.628 449.905,-103.73 459.334,-108.563 460.29,-101.628"/>
</g>
<!-- 8&#45;&gt;31 -->
<g id="edge54" class="edge"><title>8&#45;&gt;31</title>
<path fill="none" stroke="grey" stroke-width="2" d="M1337.2,-145.29C1334.3,-144.837 1331.42,-144.405 1328.58,-144 1168.65,-121.14 1121.11,-147.622 960.031,-107.608"/>
<polygon fill="grey" stroke="grey" stroke-width="2" points="960.821,-104.198 950.268,-105.137 959.103,-110.984 960.821,-104.198"/>
</g>
<!-- 38 -->
<g id="node39" class="node"><title>38</title>
<path fill="none" stroke="#d8cb56" stroke-width="2" d="M1638.5,-108C1638.5,-108 1566.66,-108 1566.66,-108 1560.66,-108 1554.66,-102 1554.66,-96 1554.66,-96 1554.66,-84 1554.66,-84 1554.66,-78 1560.66,-72 1566.66,-72 1566.66,-72 1638.5,-72 1638.5,-72 1644.5,-72 1650.5,-78 1650.5,-84 1650.5,-84 1650.5,-96 1650.5,-96 1650.5,-102 1644.5,-108 1638.5,-108"/>
<text text-anchor="middle" x="1602.58" y="-87" font-family="sans" font-size="10.00">report_multiqc_raw</text>
</g>
<!-- 8&#45;&gt;38 -->
<g id="edge68" class="edge"><title>8&#45;&gt;38</title>
<path fill="none" stroke="grey" stroke-width="2" d="M1463.59,-143.876C1489.08,-134.179 1521.15,-121.98 1548.06,-111.743"/>
<polygon fill="grey" stroke="grey" stroke-width="2" points="1549.62,-114.895 1557.72,-108.068 1547.13,-108.353 1549.62,-114.895"/>
</g>
<!-- 9 -->
<g id="node10" class="node"><title>9</title>
<path fill="none" stroke="#567bd8" stroke-width="2" d="M881.436,-324C881.436,-324 765.729,-324 765.729,-324 759.729,-324 753.729,-318 753.729,-312 753.729,-312 753.729,-300 753.729,-300 753.729,-294 759.729,-288 765.729,-288 765.729,-288 881.436,-288 881.436,-288 887.436,-288 893.436,-294 893.436,-300 893.436,-300 893.436,-312 893.436,-312 893.436,-318 887.436,-324 881.436,-324"/>
<text text-anchor="middle" x="823.582" y="-303" font-family="sans" font-size="10.00">qc_snowhite_from_sff_sample</text>
</g>
<!-- 19 -->
<g id="node20" class="node"><title>19</title>
<path fill="none" stroke="#56c9d8" stroke-width="2" d="M870.095,-252C870.095,-252 753.07,-252 753.07,-252 747.07,-252 741.07,-246 741.07,-240 741.07,-240 741.07,-228 741.07,-228 741.07,-222 747.07,-216 753.07,-216 753.07,-216 870.095,-216 870.095,-216 876.095,-216 882.095,-222 882.095,-228 882.095,-228 882.095,-240 882.095,-240 882.095,-246 876.095,-252 870.095,-252"/>
<text text-anchor="middle" x="811.582" y="-231" font-family="sans" font-size="10.00">qc_compress_from_sff_sample</text>
</g>
<!-- 9&#45;&gt;19 -->
<g id="edge34" class="edge"><title>9&#45;&gt;19</title>
<path fill="none" stroke="grey" stroke-width="2" d="M820.616,-287.697C819.294,-279.983 817.705,-270.712 816.23,-262.112"/>
<polygon fill="grey" stroke="grey" stroke-width="2" points="819.654,-261.369 814.515,-252.104 812.755,-262.552 819.654,-261.369"/>
</g>
<!-- 16 -->
<g id="node17" class="node"><title>16</title>
<path fill="none" stroke="#569ad8" stroke-width="2" stroke-dasharray="5,2" d="M1114.21,-108C1114.21,-108 980.953,-108 980.953,-108 974.953,-108 968.953,-102 968.953,-96 968.953,-96 968.953,-84 968.953,-84 968.953,-78 974.953,-72 980.953,-72 980.953,-72 1114.21,-72 1114.21,-72 1120.21,-72 1126.21,-78 1126.21,-84 1126.21,-84 1126.21,-96 1126.21,-96 1126.21,-102 1120.21,-108 1114.21,-108"/>
<text text-anchor="middle" x="1047.58" y="-87" font-family="sans" font-size="10.00">report_multiqc_from_fastq_sample</text>
</g>
<!-- 10&#45;&gt;16 -->
<g id="edge32" class="edge"><title>10&#45;&gt;16</title>
<path fill="none" stroke="grey" stroke-width="2" d="M1517.07,-145.226C1514.21,-144.797 1511.38,-144.387 1508.58,-144 1346.83,-121.607 1302.15,-131.418 1136.71,-108.08"/>
<polygon fill="grey" stroke="grey" stroke-width="2" points="1137.07,-104.597 1126.68,-106.646 1136.08,-111.526 1137.07,-104.597"/>
</g>
<!-- 10&#45;&gt;31 -->
<g id="edge59" class="edge"><title>10&#45;&gt;31</title>
<path fill="none" stroke="grey" stroke-width="2" d="M1517.09,-145.114C1514.22,-144.717 1511.38,-144.344 1508.58,-144 1269.2,-114.601 1199.36,-163.257 960.283,-107.614"/>
<polygon fill="grey" stroke="grey" stroke-width="2" points="960.78,-104.134 950.243,-105.239 959.169,-110.947 960.78,-104.134"/>
</g>
<!-- 10&#45;&gt;38 -->
<g id="edge67" class="edge"><title>10&#45;&gt;38</title>
<path fill="none" stroke="grey" stroke-width="2" d="M1602.58,-143.697C1602.58,-135.983 1602.58,-126.712 1602.58,-118.112"/>
<polygon fill="grey" stroke="grey" stroke-width="2" points="1606.08,-118.104 1602.58,-108.104 1599.08,-118.104 1606.08,-118.104"/>
</g>
<!-- 11 -->
<g id="node12" class="node"><title>11</title>
<path fill="none" stroke="#c6d856" stroke-width="2" stroke-dasharray="5,2" d="M689.637,-180C689.637,-180 521.528,-180 521.528,-180 515.528,-180 509.528,-174 509.528,-168 509.528,-168 509.528,-156 509.528,-156 509.528,-150 515.528,-144 521.528,-144 521.528,-144 689.637,-144 689.637,-144 695.637,-144 701.637,-150 701.637,-156 701.637,-156 701.637,-168 701.637,-168 701.637,-174 695.637,-180 689.637,-180"/>
<text text-anchor="middle" x="605.582" y="-159" font-family="sans" font-size="10.00">report_fastqc_snowhite_from_fastq_sample</text>
</g>
<!-- 11&#45;&gt;6 -->
<g id="edge15" class="edge"><title>11&#45;&gt;6</title>
<path fill="none" stroke="grey" stroke-width="2" d="M622.144,-143.697C630.258,-135.22 640.17,-124.864 649.053,-115.583"/>
<polygon fill="grey" stroke="grey" stroke-width="2" points="651.825,-117.749 656.211,-108.104 646.768,-112.908 651.825,-117.749"/>
</g>
<!-- 11&#45;&gt;16 -->
<g id="edge31" class="edge"><title>11&#45;&gt;16</title>
<path fill="none" stroke="grey" stroke-width="2" d="M701.703,-145.371C704.696,-144.906 707.662,-144.448 710.582,-144 817.98,-127.544 847.661,-126.649 958.987,-108.056"/>
<polygon fill="grey" stroke="grey" stroke-width="2" points="959.652,-111.494 968.934,-106.384 958.492,-104.59 959.652,-111.494"/>
</g>
<!-- 11&#45;&gt;31 -->
<g id="edge58" class="edge"><title>11&#45;&gt;31</title>
<path fill="none" stroke="grey" stroke-width="2" d="M701.66,-144.626C762.119,-133.93 835.368,-120.161 879.141,-107.718"/>
<polygon fill="grey" stroke="grey" stroke-width="2" points="880.229,-111.046 888.813,-104.836 878.23,-104.337 880.229,-111.046"/>
</g>
<!-- 12 -->
<g id="node13" class="node"><title>12</title>
<path fill="none" stroke="#d86656" stroke-width="2" stroke-dasharray="5,2" d="M1770.16,-540C1770.16,-540 1677.01,-540 1677.01,-540 1671.01,-540 1665.01,-534 1665.01,-528 1665.01,-528 1665.01,-516 1665.01,-516 1665.01,-510 1671.01,-504 1677.01,-504 1677.01,-504 1770.16,-504 1770.16,-504 1776.16,-504 1782.16,-510 1782.16,-516 1782.16,-516 1782.16,-528 1782.16,-528 1782.16,-534 1776.16,-540 1770.16,-540"/>
<text text-anchor="middle" x="1723.58" y="-519" font-family="sans" font-size="10.00">raw_sff_to_fastq_sample</text>
</g>
<!-- 40 -->
<g id="node41" class="node"><title>40</title>
<path fill="none" stroke="#56d8d0" stroke-width="2" stroke-dasharray="5,2" d="M2044.63,-180C2044.63,-180 1906.54,-180 1906.54,-180 1900.54,-180 1894.54,-174 1894.54,-168 1894.54,-168 1894.54,-156 1894.54,-156 1894.54,-150 1900.54,-144 1906.54,-144 1906.54,-144 2044.63,-144 2044.63,-144 2050.63,-144 2056.63,-150 2056.63,-156 2056.63,-156 2056.63,-168 2056.63,-168 2056.63,-174 2050.63,-180 2044.63,-180"/>
<text text-anchor="middle" x="1975.58" y="-159" font-family="sans" font-size="10.00">report_fastqc_raw_from_sff_sample</text>
</g>
<!-- 12&#45;&gt;40 -->
<g id="edge71" class="edge"><title>12&#45;&gt;40</title>
<path fill="none" stroke="grey" stroke-width="2" d="M1756.64,-503.801C1795.45,-480.961 1854.58,-436.691 1854.58,-379 1854.58,-379 1854.58,-379 1854.58,-305 1854.58,-253.046 1902.09,-210.449 1937.57,-185.88"/>
<polygon fill="grey" stroke="grey" stroke-width="2" points="1939.94,-188.505 1946.29,-180.028 1936.04,-182.692 1939.94,-188.505"/>
</g>
<!-- 13 -->
<g id="node14" class="node"><title>13</title>
<path fill="none" stroke="#d8ac56" stroke-width="2" d="M891.248,-180C891.248,-180 731.917,-180 731.917,-180 725.917,-180 719.917,-174 719.917,-168 719.917,-168 719.917,-156 719.917,-156 719.917,-150 725.917,-144 731.917,-144 731.917,-144 891.248,-144 891.248,-144 897.248,-144 903.248,-150 903.248,-156 903.248,-156 903.248,-168 903.248,-168 903.248,-174 897.248,-180 891.248,-180"/>
<text text-anchor="middle" x="811.582" y="-159" font-family="sans" font-size="10.00">report_fastqc_snowhite_from_sff_sample</text>
</g>
<!-- 13&#45;&gt;6 -->
<g id="edge14" class="edge"><title>13&#45;&gt;6</title>
<path fill="none" stroke="grey" stroke-width="2" d="M777.579,-143.876C758.984,-134.512 735.755,-122.814 715.877,-112.803"/>
<polygon fill="grey" stroke="grey" stroke-width="2" points="717.222,-109.562 706.716,-108.19 714.074,-115.814 717.222,-109.562"/>
</g>
<!-- 24 -->
<g id="node25" class="node"><title>24</title>
<path fill="none" stroke="#9fd856" stroke-width="2" d="M1456.82,-108C1456.82,-108 1332.34,-108 1332.34,-108 1326.34,-108 1320.34,-102 1320.34,-96 1320.34,-96 1320.34,-84 1320.34,-84 1320.34,-78 1326.34,-72 1332.34,-72 1332.34,-72 1456.82,-72 1456.82,-72 1462.82,-72 1468.82,-78 1468.82,-84 1468.82,-84 1468.82,-96 1468.82,-96 1468.82,-102 1462.82,-108 1456.82,-108"/>
<text text-anchor="middle" x="1394.58" y="-87" font-family="sans" font-size="10.00">report_multiqc_from_sff_sample</text>
</g>
<!-- 13&#45;&gt;24 -->
<g id="edge40" class="edge"><title>13&#45;&gt;24</title>
<path fill="none" stroke="grey" stroke-width="2" d="M903.195,-145.265C906.36,-144.822 909.496,-144.398 912.582,-144 1085.89,-121.629 1133.66,-133.445 1309.86,-108.162"/>
<polygon fill="grey" stroke="grey" stroke-width="2" points="1310.6,-111.591 1320,-106.688 1309.6,-104.664 1310.6,-111.591"/>
</g>
<!-- 13&#45;&gt;31 -->
<g id="edge52" class="edge"><title>13&#45;&gt;31</title>
<path fill="none" stroke="grey" stroke-width="2" d="M838.002,-143.876C851.993,-134.808 869.359,-123.552 884.468,-113.759"/>
<polygon fill="grey" stroke="grey" stroke-width="2" points="886.573,-116.566 893.061,-108.19 882.766,-110.692 886.573,-116.566"/>
</g>
<!-- 23 -->
<g id="node24" class="node"><title>23</title>
<path fill="none" stroke="#568ad8" stroke-width="2" stroke-dasharray="5,2" d="M377.739,-180C377.739,-180 213.426,-180 213.426,-180 207.426,-180 201.426,-174 201.426,-168 201.426,-168 201.426,-156 201.426,-156 201.426,-150 207.426,-144 213.426,-144 213.426,-144 377.739,-144 377.739,-144 383.739,-144 389.739,-150 389.739,-156 389.739,-156 389.739,-168 389.739,-168 389.739,-174 383.739,-180 377.739,-180"/>
<text text-anchor="middle" x="295.582" y="-159" font-family="sans" font-size="10.00">report_fastqc_pyrobayes_from_sff_sample</text>
</g>
<!-- 14&#45;&gt;23 -->
<g id="edge39" class="edge"><title>14&#45;&gt;23</title>
<path fill="none" stroke="grey" stroke-width="2" d="M527.52,-431.841C536.149,-389.48 551.874,-278.825 497.582,-216 489.846,-207.047 437.47,-193.443 387.994,-182.259"/>
<polygon fill="grey" stroke="grey" stroke-width="2" points="388.675,-178.825 378.152,-180.057 387.146,-185.656 388.675,-178.825"/>
</g>
<!-- 33 -->
<g id="node34" class="node"><title>33</title>
<path fill="none" stroke="#61d856" stroke-width="2" d="M483.975,-396C483.975,-396 337.19,-396 337.19,-396 331.19,-396 325.19,-390 325.19,-384 325.19,-384 325.19,-372 325.19,-372 325.19,-366 331.19,-360 337.19,-360 337.19,-360 483.975,-360 483.975,-360 489.975,-360 495.975,-366 495.975,-372 495.975,-372 495.975,-384 495.975,-384 495.975,-390 489.975,-396 483.975,-396"/>
<text text-anchor="middle" x="410.582" y="-375" font-family="sans" font-size="10.00">qc_decompress_pyrobayes_fq_sample</text>
</g>
<!-- 14&#45;&gt;33 -->
<g id="edge61" class="edge"><title>14&#45;&gt;33</title>
<path fill="none" stroke="grey" stroke-width="2" d="M495.94,-431.876C481.165,-422.724 462.791,-411.342 446.88,-401.485"/>
<polygon fill="grey" stroke="grey" stroke-width="2" points="448.676,-398.481 438.332,-396.19 444.99,-404.431 448.676,-398.481"/>
</g>
<!-- 15 -->
<g id="node16" class="node"><title>15</title>
<path fill="none" stroke="#56d8a2" stroke-width="2" d="M479.283,-180C479.283,-180 419.882,-180 419.882,-180 413.882,-180 407.882,-174 407.882,-168 407.882,-168 407.882,-156 407.882,-156 407.882,-150 413.882,-144 419.882,-144 419.882,-144 479.283,-144 479.283,-144 485.283,-144 491.283,-150 491.283,-156 491.283,-156 491.283,-168 491.283,-168 491.283,-174 485.283,-180 479.283,-180"/>
<text text-anchor="middle" x="449.582" y="-159" font-family="sans" font-size="10.00">assembly_merge</text>
</g>
<!-- 15&#45;&gt;7 -->
<g id="edge18" class="edge"><title>15&#45;&gt;7</title>
<path fill="none" stroke="grey" stroke-width="2" d="M471.583,-143.697C482.791,-134.881 496.585,-124.032 508.737,-114.474"/>
<polygon fill="grey" stroke="grey" stroke-width="2" points="511.139,-117.038 516.836,-108.104 506.812,-111.535 511.139,-117.038"/>
</g>
<!-- 16&#45;&gt;0 -->
<g id="edge2" class="edge"><title>16&#45;&gt;0</title>
<path fill="none" stroke="grey" stroke-width="2" d="M1016.27,-71.8761C997.952,-61.8584 974.751,-49.17 955.667,-38.7338"/>
<polygon fill="grey" stroke="grey" stroke-width="2" points="957.122,-35.5405 946.669,-33.8131 953.764,-41.6821 957.122,-35.5405"/>
</g>
<!-- 17 -->
<g id="node18" class="node"><title>17</title>
<path fill="none" stroke="#70d856" stroke-width="2" stroke-dasharray="5,2" d="M1471.16,-612C1471.16,-612 1368.01,-612 1368.01,-612 1362.01,-612 1356.01,-606 1356.01,-600 1356.01,-600 1356.01,-588 1356.01,-588 1356.01,-582 1362.01,-576 1368.01,-576 1368.01,-576 1471.16,-576 1471.16,-576 1477.16,-576 1483.16,-582 1483.16,-588 1483.16,-588 1483.16,-600 1483.16,-600 1483.16,-606 1477.16,-612 1471.16,-612"/>
<text text-anchor="middle" x="1419.58" y="-597" font-family="sans" font-size="10.00">raw_make_link_sff_sample</text>
<text text-anchor="middle" x="1419.58" y="-585" font-family="sans" font-size="10.00">sample: sample2</text>
</g>
<!-- 17&#45;&gt;12 -->
<g id="edge24" class="edge"><title>17&#45;&gt;12</title>
<path fill="none" stroke="grey" stroke-width="2" d="M1483.31,-578.326C1533.5,-566.768 1603.35,-550.686 1654.8,-538.838"/>
<polygon fill="grey" stroke="grey" stroke-width="2" points="1655.87,-542.183 1664.83,-536.528 1654.3,-535.361 1655.87,-542.183"/>
</g>
<!-- 37 -->
<g id="node38" class="node"><title>37</title>
<path fill="none" stroke="#afd856" stroke-width="2" stroke-dasharray="5,2" d="M1373.94,-540C1373.94,-540 1293.22,-540 1293.22,-540 1287.22,-540 1281.22,-534 1281.22,-528 1281.22,-528 1281.22,-516 1281.22,-516 1281.22,-510 1287.22,-504 1293.22,-504 1293.22,-504 1373.94,-504 1373.94,-504 1379.94,-504 1385.94,-510 1385.94,-516 1385.94,-516 1385.94,-528 1385.94,-528 1385.94,-534 1379.94,-540 1373.94,-540"/>
<text text-anchor="middle" x="1333.58" y="-519" font-family="sans" font-size="10.00">qc_pyrobayes_sample</text>
</g>
<!-- 17&#45;&gt;37 -->
<g id="edge65" class="edge"><title>17&#45;&gt;37</title>
<path fill="none" stroke="grey" stroke-width="2" d="M1398.32,-575.697C1387.49,-566.881 1374.16,-556.032 1362.42,-546.474"/>
<polygon fill="grey" stroke="grey" stroke-width="2" points="1364.56,-543.703 1354.6,-540.104 1360.14,-549.132 1364.56,-543.703"/>
</g>
<!-- 18 -->
<g id="node19" class="node"><title>18</title>
<path fill="none" stroke="#56a9d8" stroke-width="2" stroke-dasharray="5,2" d="M1253.5,-468C1253.5,-468 1151.67,-468 1151.67,-468 1145.67,-468 1139.67,-462 1139.67,-456 1139.67,-456 1139.67,-444 1139.67,-444 1139.67,-438 1145.67,-432 1151.67,-432 1151.67,-432 1253.5,-432 1253.5,-432 1259.5,-432 1265.5,-438 1265.5,-444 1265.5,-444 1265.5,-456 1265.5,-456 1265.5,-462 1259.5,-468 1253.5,-468"/>
<text text-anchor="middle" x="1202.58" y="-447" font-family="sans" font-size="10.00">qc_join_fasta_qual_sample</text>
</g>
<!-- 34 -->
<g id="node35" class="node"><title>34</title>
<path fill="none" stroke="#61d856" stroke-width="2" d="M1081.97,-396C1081.97,-396 935.19,-396 935.19,-396 929.19,-396 923.19,-390 923.19,-384 923.19,-384 923.19,-372 923.19,-372 923.19,-366 929.19,-360 935.19,-360 935.19,-360 1081.97,-360 1081.97,-360 1087.97,-360 1093.97,-366 1093.97,-372 1093.97,-372 1093.97,-384 1093.97,-384 1093.97,-390 1087.97,-396 1081.97,-396"/>
<text text-anchor="middle" x="1008.58" y="-375" font-family="sans" font-size="10.00">qc_decompress_pyrobayes_fq_sample</text>
</g>
<!-- 18&#45;&gt;34 -->
<g id="edge62" class="edge"><title>18&#45;&gt;34</title>
<path fill="none" stroke="grey" stroke-width="2" d="M1155.12,-431.876C1128.01,-422.094 1093.85,-409.765 1065.32,-399.474"/>
<polygon fill="grey" stroke="grey" stroke-width="2" points="1066.48,-396.17 1055.89,-396.068 1064.1,-402.755 1066.48,-396.17"/>
</g>
<!-- 35 -->
<g id="node36" class="node"><title>35</title>
<path fill="none" stroke="#568ad8" stroke-width="2" stroke-dasharray="5,2" d="M1307.74,-180C1307.74,-180 1143.43,-180 1143.43,-180 1137.43,-180 1131.43,-174 1131.43,-168 1131.43,-168 1131.43,-156 1131.43,-156 1131.43,-150 1137.43,-144 1143.43,-144 1143.43,-144 1307.74,-144 1307.74,-144 1313.74,-144 1319.74,-150 1319.74,-156 1319.74,-156 1319.74,-168 1319.74,-168 1319.74,-174 1313.74,-180 1307.74,-180"/>
<text text-anchor="middle" x="1225.58" y="-159" font-family="sans" font-size="10.00">report_fastqc_pyrobayes_from_sff_sample</text>
</g>
<!-- 18&#45;&gt;35 -->
<g id="edge63" class="edge"><title>18&#45;&gt;35</title>
<path fill="none" stroke="grey" stroke-width="2" d="M1203.95,-431.966C1207.79,-384.291 1218.65,-249.185 1223.36,-190.63"/>
<polygon fill="grey" stroke="grey" stroke-width="2" points="1226.88,-190.555 1224.19,-180.306 1219.9,-189.994 1226.88,-190.555"/>
</g>
<!-- 19&#45;&gt;13 -->
<g id="edge25" class="edge"><title>19&#45;&gt;13</title>
<path fill="none" stroke="grey" stroke-width="2" d="M811.582,-215.697C811.582,-207.983 811.582,-198.712 811.582,-190.112"/>
<polygon fill="grey" stroke="grey" stroke-width="2" points="815.083,-190.104 811.582,-180.104 808.083,-190.104 815.083,-190.104"/>
</g>
<!-- 19&#45;&gt;15 -->
<g id="edge28" class="edge"><title>19&#45;&gt;15</title>
<path fill="none" stroke="grey" stroke-width="2" d="M740.78,-221.071C661.011,-207.615 538.436,-186.878 501.258,-179.607"/>
<polygon fill="grey" stroke="grey" stroke-width="2" points="501.967,-176.18 491.457,-177.523 500.51,-183.026 501.967,-176.18"/>
</g>
<!-- 20 -->
<g id="node21" class="node"><title>20</title>
<path fill="none" stroke="#80d856" stroke-width="2" stroke-dasharray="5,2" d="M723.825,-324C723.825,-324 599.34,-324 599.34,-324 593.34,-324 587.34,-318 587.34,-312 587.34,-312 587.34,-300 587.34,-300 587.34,-294 593.34,-288 599.34,-288 599.34,-288 723.825,-288 723.825,-288 729.825,-288 735.825,-294 735.825,-300 735.825,-300 735.825,-312 735.825,-312 735.825,-318 729.825,-324 723.825,-324"/>
<text text-anchor="middle" x="661.582" y="-303" font-family="sans" font-size="10.00">qc_snowhite_from_fastq_sample</text>
</g>
<!-- 28 -->
<g id="node29" class="node"><title>28</title>
<path fill="none" stroke="#8fd856" stroke-width="2" stroke-dasharray="5,2" d="M689.984,-252C689.984,-252 563.181,-252 563.181,-252 557.181,-252 551.181,-246 551.181,-240 551.181,-240 551.181,-228 551.181,-228 551.181,-222 557.181,-216 563.181,-216 563.181,-216 689.984,-216 689.984,-216 695.984,-216 701.984,-222 701.984,-228 701.984,-228 701.984,-240 701.984,-240 701.984,-246 695.984,-252 689.984,-252"/>
<text text-anchor="middle" x="626.582" y="-231" font-family="sans" font-size="10.00">qc_compress_from_fastq_sample</text>
</g>
<!-- 20&#45;&gt;28 -->
<g id="edge45" class="edge"><title>20&#45;&gt;28</title>
<path fill="none" stroke="grey" stroke-width="2" d="M652.931,-287.697C648.947,-279.728 644.132,-270.1 639.715,-261.264"/>
<polygon fill="grey" stroke="grey" stroke-width="2" points="642.737,-259.483 635.135,-252.104 636.476,-262.614 642.737,-259.483"/>
</g>
<!-- 21 -->
<g id="node22" class="node"><title>21</title>
<path fill="none" stroke="#56d892" stroke-width="2" stroke-dasharray="5,2" d="M1694.55,-468C1694.55,-468 1582.62,-468 1582.62,-468 1576.62,-468 1570.62,-462 1570.62,-456 1570.62,-456 1570.62,-444 1570.62,-444 1570.62,-438 1576.62,-432 1582.62,-432 1582.62,-432 1694.55,-432 1694.55,-432 1700.55,-432 1706.55,-438 1706.55,-444 1706.55,-444 1706.55,-456 1706.55,-456 1706.55,-462 1700.55,-468 1694.55,-468"/>
<text text-anchor="middle" x="1638.58" y="-453" font-family="sans" font-size="10.00">raw_make_link_fastq_sample</text>
<text text-anchor="middle" x="1638.58" y="-441" font-family="sans" font-size="10.00">sample: sample3</text>
</g>
<!-- 21&#45;&gt;5 -->
<g id="edge13" class="edge"><title>21&#45;&gt;5</title>
<path fill="none" stroke="grey" stroke-width="2" d="M1570.22,-434.411C1520.91,-423.887 1453.86,-409.578 1400.26,-398.138"/>
<polygon fill="grey" stroke="grey" stroke-width="2" points="1400.92,-394.701 1390.41,-396.036 1399.46,-401.546 1400.92,-394.701"/>
</g>
<!-- 27 -->
<g id="node28" class="node"><title>27</title>
<path fill="none" stroke="#d89c56" stroke-width="2" stroke-dasharray="5,2" d="M1865.02,-180C1865.02,-180 1718.15,-180 1718.15,-180 1712.15,-180 1706.15,-174 1706.15,-168 1706.15,-168 1706.15,-156 1706.15,-156 1706.15,-150 1712.15,-144 1718.15,-144 1718.15,-144 1865.02,-144 1865.02,-144 1871.02,-144 1877.02,-150 1877.02,-156 1877.02,-156 1877.02,-168 1877.02,-168 1877.02,-174 1871.02,-180 1865.02,-180"/>
<text text-anchor="middle" x="1791.58" y="-159" font-family="sans" font-size="10.00">report_fastqc_raw_from_fastq_sample</text>
</g>
<!-- 21&#45;&gt;27 -->
<g id="edge44" class="edge"><title>21&#45;&gt;27</title>
<path fill="none" stroke="grey" stroke-width="2" d="M1647.7,-431.966C1673.41,-383.894 1746.68,-246.932 1777.57,-189.185"/>
<polygon fill="grey" stroke="grey" stroke-width="2" points="1780.69,-190.775 1782.32,-180.306 1774.52,-187.473 1780.69,-190.775"/>
</g>
<!-- 22 -->
<g id="node23" class="node"><title>22</title>
<path fill="none" stroke="#569ad8" stroke-width="2" stroke-dasharray="5,2" d="M1290.21,-108C1290.21,-108 1156.95,-108 1156.95,-108 1150.95,-108 1144.95,-102 1144.95,-96 1144.95,-96 1144.95,-84 1144.95,-84 1144.95,-78 1150.95,-72 1156.95,-72 1156.95,-72 1290.21,-72 1290.21,-72 1296.21,-72 1302.21,-78 1302.21,-84 1302.21,-84 1302.21,-96 1302.21,-96 1302.21,-102 1296.21,-108 1290.21,-108"/>
<text text-anchor="middle" x="1223.58" y="-87" font-family="sans" font-size="10.00">report_multiqc_from_fastq_sample</text>
</g>
<!-- 22&#45;&gt;0 -->
<g id="edge7" class="edge"><title>22&#45;&gt;0</title>
<path fill="none" stroke="grey" stroke-width="2" d="M1149.6,-71.9656C1088.53,-57.9025 1004.4,-38.5303 956.644,-27.5339"/>
<polygon fill="grey" stroke="grey" stroke-width="2" points="957.273,-24.0872 946.743,-25.254 955.702,-30.9087 957.273,-24.0872"/>
</g>
<!-- 23&#45;&gt;30 -->
<g id="edge48" class="edge"><title>23&#45;&gt;30</title>
<path fill="none" stroke="grey" stroke-width="2" d="M315.358,-143.697C325.336,-134.965 337.593,-124.24 348.439,-114.75"/>
<polygon fill="grey" stroke="grey" stroke-width="2" points="350.814,-117.323 356.035,-108.104 346.204,-112.055 350.814,-117.323"/>
</g>
<!-- 23&#45;&gt;31 -->
<g id="edge56" class="edge"><title>23&#45;&gt;31</title>
<path fill="none" stroke="grey" stroke-width="2" d="M389.834,-145.1C392.782,-144.713 395.703,-144.345 398.582,-144 608.217,-118.905 669.418,-157.403 879.139,-107.57"/>
<polygon fill="grey" stroke="grey" stroke-width="2" points="880.016,-110.959 888.915,-105.209 878.373,-104.155 880.016,-110.959"/>
</g>
<!-- 43 -->
<g id="node44" class="node"><title>43</title>
<path fill="none" stroke="#56d8c1" stroke-width="2" d="M858.11,-108C858.11,-108 761.055,-108 761.055,-108 755.055,-108 749.055,-102 749.055,-96 749.055,-96 749.055,-84 749.055,-84 749.055,-78 755.055,-72 761.055,-72 761.055,-72 858.11,-72 858.11,-72 864.11,-72 870.11,-78 870.11,-84 870.11,-84 870.11,-96 870.11,-96 870.11,-102 864.11,-108 858.11,-108"/>
<text text-anchor="middle" x="809.582" y="-87" font-family="sans" font-size="10.00">report_multiqc_pyrobayes</text>
</g>
<!-- 23&#45;&gt;43 -->
<g id="edge76" class="edge"><title>23&#45;&gt;43</title>
<path fill="none" stroke="grey" stroke-width="2" d="M389.849,-145.215C392.792,-144.795 395.709,-144.389 398.582,-144 546.362,-124.021 587.664,-133.605 738.859,-107.98"/>
<polygon fill="grey" stroke="grey" stroke-width="2" points="739.717,-111.384 748.98,-106.24 738.531,-104.485 739.717,-111.384"/>
</g>
<!-- 24&#45;&gt;0 -->
<g id="edge5" class="edge"><title>24&#45;&gt;0</title>
<path fill="none" stroke="grey" stroke-width="2" d="M1319.97,-73.47C1317.14,-72.9599 1314.34,-72.4679 1311.58,-72 1181.82,-49.9644 1026.63,-31.2165 956.828,-23.1848"/>
<polygon fill="grey" stroke="grey" stroke-width="2" points="957.101,-19.6932 946.768,-22.0336 956.305,-26.6478 957.101,-19.6932"/>
</g>
<!-- 25 -->
<g id="node26" class="node"><title>25</title>
<path fill="none" stroke="#70d856" stroke-width="2" stroke-dasharray="5,2" d="M1161.16,-612C1161.16,-612 1058.01,-612 1058.01,-612 1052.01,-612 1046.01,-606 1046.01,-600 1046.01,-600 1046.01,-588 1046.01,-588 1046.01,-582 1052.01,-576 1058.01,-576 1058.01,-576 1161.16,-576 1161.16,-576 1167.16,-576 1173.16,-582 1173.16,-588 1173.16,-588 1173.16,-600 1173.16,-600 1173.16,-606 1167.16,-612 1161.16,-612"/>
<text text-anchor="middle" x="1109.58" y="-597" font-family="sans" font-size="10.00">raw_make_link_sff_sample</text>
<text text-anchor="middle" x="1109.58" y="-585" font-family="sans" font-size="10.00">sample: sample1</text>
</g>
<!-- 25&#45;&gt;2 -->
<g id="edge10" class="edge"><title>25&#45;&gt;2</title>
<path fill="none" stroke="grey" stroke-width="2" d="M1048.26,-575.966C1009.31,-565.146 959.048,-551.185 919.908,-540.313"/>
<polygon fill="grey" stroke="grey" stroke-width="2" points="920.782,-536.923 910.21,-537.619 918.908,-543.668 920.782,-536.923"/>
</g>
<!-- 25&#45;&gt;3 -->
<g id="edge11" class="edge"><title>25&#45;&gt;3</title>
<path fill="none" stroke="grey" stroke-width="2" d="M1131.09,-575.697C1142.05,-566.881 1155.53,-556.032 1167.41,-546.474"/>
<polygon fill="grey" stroke="grey" stroke-width="2" points="1169.73,-549.1 1175.32,-540.104 1165.34,-543.646 1169.73,-549.1"/>
</g>
<!-- 26&#45;&gt;20 -->
<g id="edge35" class="edge"><title>26&#45;&gt;20</title>
<path fill="none" stroke="grey" stroke-width="2" d="M663.088,-359.697C662.868,-351.983 662.603,-342.712 662.357,-334.112"/>
<polygon fill="grey" stroke="grey" stroke-width="2" points="665.855,-334 662.071,-324.104 658.858,-334.2 665.855,-334"/>
</g>
<!-- 27&#45;&gt;22 -->
<g id="edge37" class="edge"><title>27&#45;&gt;22</title>
<path fill="none" stroke="grey" stroke-width="2" d="M1705.93,-145.332C1702.78,-144.864 1699.65,-144.418 1696.58,-144 1529.54,-121.284 1483.45,-131.903 1312.76,-108.084"/>
<polygon fill="grey" stroke="grey" stroke-width="2" points="1313.07,-104.592 1302.68,-106.657 1312.09,-111.523 1313.07,-104.592"/>
</g>
<!-- 27&#45;&gt;31 -->
<g id="edge51" class="edge"><title>27&#45;&gt;31</title>
<path fill="none" stroke="grey" stroke-width="2" d="M1705.95,-145.156C1702.79,-144.737 1699.66,-144.349 1696.58,-144 1374.07,-107.419 1281.14,-179.765 960.276,-107.583"/>
<polygon fill="grey" stroke="grey" stroke-width="2" points="960.758,-104.103 950.23,-105.293 959.202,-110.928 960.758,-104.103"/>
</g>
<!-- 27&#45;&gt;38 -->
<g id="edge66" class="edge"><title>27&#45;&gt;38</title>
<path fill="none" stroke="grey" stroke-width="2" d="M1745.35,-143.876C1719.05,-134.137 1685.94,-121.872 1658.22,-111.608"/>
<polygon fill="grey" stroke="grey" stroke-width="2" points="1659.26,-108.259 1648.67,-108.068 1656.83,-114.824 1659.26,-108.259"/>
</g>
<!-- 28&#45;&gt;11 -->
<g id="edge23" class="edge"><title>28&#45;&gt;11</title>
<path fill="none" stroke="grey" stroke-width="2" d="M621.391,-215.697C619.052,-207.898 616.235,-198.509 613.631,-189.829"/>
<polygon fill="grey" stroke="grey" stroke-width="2" points="616.94,-188.677 610.714,-180.104 610.235,-190.688 616.94,-188.677"/>
</g>
<!-- 28&#45;&gt;15 -->
<g id="edge29" class="edge"><title>28&#45;&gt;15</title>
<path fill="none" stroke="grey" stroke-width="2" d="M583.283,-215.876C558.308,-205.999 526.768,-193.525 500.594,-183.174"/>
<polygon fill="grey" stroke="grey" stroke-width="2" points="501.802,-179.888 491.216,-179.465 499.228,-186.398 501.802,-179.888"/>
</g>
<!-- 39 -->
<g id="node40" class="node"><title>39</title>
<path fill="none" stroke="#8fd856" stroke-width="2" stroke-dasharray="5,2" d="M1059.98,-252C1059.98,-252 933.181,-252 933.181,-252 927.181,-252 921.181,-246 921.181,-240 921.181,-240 921.181,-228 921.181,-228 921.181,-222 927.181,-216 933.181,-216 933.181,-216 1059.98,-216 1059.98,-216 1065.98,-216 1071.98,-222 1071.98,-228 1071.98,-228 1071.98,-240 1071.98,-240 1071.98,-246 1065.98,-252 1059.98,-252"/>
<text text-anchor="middle" x="996.582" y="-231" font-family="sans" font-size="10.00">qc_compress_from_fastq_sample</text>
</g>
<!-- 29&#45;&gt;39 -->
<g id="edge70" class="edge"><title>29&#45;&gt;39</title>
<path fill="none" stroke="grey" stroke-width="2" d="M996.582,-287.697C996.582,-279.983 996.582,-270.712 996.582,-262.112"/>
<polygon fill="grey" stroke="grey" stroke-width="2" points="1000.08,-262.104 996.582,-252.104 993.083,-262.104 1000.08,-262.104"/>
</g>
<!-- 30&#45;&gt;0 -->
<g id="edge6" class="edge"><title>30&#45;&gt;0</title>
<path fill="none" stroke="grey" stroke-width="2" d="M449.998,-77.0538C461.567,-75.295 473.39,-73.5542 484.582,-72 631.462,-51.604 806.85,-31.542 882.188,-23.1291"/>
<polygon fill="grey" stroke="grey" stroke-width="2" points="883.011,-26.5591 892.562,-21.9737 882.236,-19.6022 883.011,-26.5591"/>
</g>
<!-- 31&#45;&gt;0 -->
<g id="edge4" class="edge"><title>31&#45;&gt;0</title>
<path fill="none" stroke="grey" stroke-width="2" d="M919.582,-71.6966C919.582,-63.9827 919.582,-54.7125 919.582,-46.1124"/>
<polygon fill="grey" stroke="grey" stroke-width="2" points="923.083,-46.1043 919.582,-36.1043 916.083,-46.1044 923.083,-46.1043"/>
</g>
<!-- 32 -->
<g id="node33" class="node"><title>32</title>
<path fill="none" stroke="#d8bc56" stroke-width="2" stroke-dasharray="5,2" d="M867.16,-396C867.16,-396 774.005,-396 774.005,-396 768.005,-396 762.005,-390 762.005,-384 762.005,-384 762.005,-372 762.005,-372 762.005,-366 768.005,-360 774.005,-360 774.005,-360 867.16,-360 867.16,-360 873.16,-360 879.16,-366 879.16,-372 879.16,-372 879.16,-384 879.16,-384 879.16,-390 873.16,-396 867.16,-396"/>
<text text-anchor="middle" x="820.582" y="-375" font-family="sans" font-size="10.00">raw_make_link_adaptors</text>
</g>
<!-- 32&#45;&gt;9 -->
<g id="edge21" class="edge"><title>32&#45;&gt;9</title>
<path fill="none" stroke="grey" stroke-width="2" d="M821.324,-359.697C821.655,-351.983 822.052,-342.712 822.421,-334.112"/>
<polygon fill="grey" stroke="grey" stroke-width="2" points="825.918,-334.245 822.849,-324.104 818.924,-333.945 825.918,-334.245"/>
</g>
<!-- 32&#45;&gt;20 -->
<g id="edge36" class="edge"><title>32&#45;&gt;20</title>
<path fill="none" stroke="grey" stroke-width="2" d="M781.687,-359.876C759.95,-350.307 732.679,-338.3 709.618,-328.148"/>
<polygon fill="grey" stroke="grey" stroke-width="2" points="710.915,-324.894 700.352,-324.068 708.094,-331.301 710.915,-324.894"/>
</g>
<!-- 32&#45;&gt;29 -->
<g id="edge47" class="edge"><title>32&#45;&gt;29</title>
<path fill="none" stroke="grey" stroke-width="2" d="M863.637,-359.876C887.911,-350.222 918.422,-338.087 944.09,-327.878"/>
<polygon fill="grey" stroke="grey" stroke-width="2" points="945.669,-331.016 953.668,-324.068 943.082,-324.512 945.669,-331.016"/>
</g>
<!-- 42 -->
<g id="node43" class="node"><title>42</title>
<path fill="none" stroke="#567bd8" stroke-width="2" d="M475.436,-324C475.436,-324 359.729,-324 359.729,-324 353.729,-324 347.729,-318 347.729,-312 347.729,-312 347.729,-300 347.729,-300 347.729,-294 353.729,-288 359.729,-288 359.729,-288 475.436,-288 475.436,-288 481.436,-288 487.436,-294 487.436,-300 487.436,-300 487.436,-312 487.436,-312 487.436,-318 481.436,-324 475.436,-324"/>
<text text-anchor="middle" x="417.582" y="-303" font-family="sans" font-size="10.00">qc_snowhite_from_sff_sample</text>
</g>
<!-- 32&#45;&gt;42 -->
<g id="edge73" class="edge"><title>32&#45;&gt;42</title>
<path fill="none" stroke="grey" stroke-width="2" d="M761.683,-361.938C758.611,-361.258 755.564,-360.607 752.582,-360 666.008,-342.365 565.834,-327.195 497.745,-317.659"/>
<polygon fill="grey" stroke="grey" stroke-width="2" points="497.905,-314.148 487.518,-316.235 496.94,-321.081 497.905,-314.148"/>
</g>
<!-- 33&#45;&gt;42 -->
<g id="edge74" class="edge"><title>33&#45;&gt;42</title>
<path fill="none" stroke="grey" stroke-width="2" d="M412.313,-359.697C413.084,-351.983 414.011,-342.712 414.871,-334.112"/>
<polygon fill="grey" stroke="grey" stroke-width="2" points="418.36,-334.403 415.872,-324.104 411.394,-333.706 418.36,-334.403"/>
</g>
<!-- 34&#45;&gt;9 -->
<g id="edge20" class="edge"><title>34&#45;&gt;9</title>
<path fill="none" stroke="grey" stroke-width="2" d="M963.326,-359.876C937.586,-350.137 905.174,-337.872 878.047,-327.608"/>
<polygon fill="grey" stroke="grey" stroke-width="2" points="879.283,-324.334 868.692,-324.068 876.806,-330.881 879.283,-324.334"/>
</g>
<!-- 35&#45;&gt;24 -->
<g id="edge41" class="edge"><title>35&#45;&gt;24</title>
<path fill="none" stroke="grey" stroke-width="2" d="M1266.92,-143.876C1290.13,-134.264 1319.27,-122.193 1343.85,-112.013"/>
<polygon fill="grey" stroke="grey" stroke-width="2" points="1345.48,-115.129 1353.37,-108.068 1342.8,-108.662 1345.48,-115.129"/>
</g>
<!-- 35&#45;&gt;31 -->
<g id="edge53" class="edge"><title>35&#45;&gt;31</title>
<path fill="none" stroke="grey" stroke-width="2" d="M1131.31,-144.325C1072.91,-133.623 1002.55,-119.962 960.027,-107.731"/>
<polygon fill="grey" stroke="grey" stroke-width="2" points="960.942,-104.351 950.357,-104.819 958.923,-111.054 960.942,-104.351"/>
</g>
<!-- 35&#45;&gt;43 -->
<g id="edge75" class="edge"><title>35&#45;&gt;43</title>
<path fill="none" stroke="grey" stroke-width="2" d="M1131.29,-145.374C1128.36,-144.908 1125.45,-144.449 1122.58,-144 1017.88,-127.605 988.449,-128.816 880.232,-108.027"/>
<polygon fill="grey" stroke="grey" stroke-width="2" points="880.698,-104.552 870.214,-106.083 879.365,-111.424 880.698,-104.552"/>
</g>
<!-- 36 -->
<g id="node37" class="node"><title>36</title>
<path fill="none" stroke="#c6d856" stroke-width="2" stroke-dasharray="5,2" d="M1101.64,-180C1101.64,-180 933.528,-180 933.528,-180 927.528,-180 921.528,-174 921.528,-168 921.528,-168 921.528,-156 921.528,-156 921.528,-150 927.528,-144 933.528,-144 933.528,-144 1101.64,-144 1101.64,-144 1107.64,-144 1113.64,-150 1113.64,-156 1113.64,-156 1113.64,-168 1113.64,-168 1113.64,-174 1107.64,-180 1101.64,-180"/>
<text text-anchor="middle" x="1017.58" y="-159" font-family="sans" font-size="10.00">report_fastqc_snowhite_from_fastq_sample</text>
</g>
<!-- 36&#45;&gt;6 -->
<g id="edge16" class="edge"><title>36&#45;&gt;6</title>
<path fill="none" stroke="grey" stroke-width="2" d="M921.439,-144.141C870.387,-134.838 806.385,-122.624 740.755,-108.197"/>
<polygon fill="grey" stroke="grey" stroke-width="2" points="741.156,-104.701 730.636,-105.957 739.644,-111.535 741.156,-104.701"/>
</g>
<!-- 36&#45;&gt;22 -->
<g id="edge38" class="edge"><title>36&#45;&gt;22</title>
<path fill="none" stroke="grey" stroke-width="2" d="M1067.71,-143.966C1096.62,-134.142 1133.15,-121.729 1163.58,-111.389"/>
<polygon fill="grey" stroke="grey" stroke-width="2" points="1164.89,-114.642 1173.23,-108.111 1162.63,-108.014 1164.89,-114.642"/>
</g>
<!-- 36&#45;&gt;31 -->
<g id="edge60" class="edge"><title>36&#45;&gt;31</title>
<path fill="none" stroke="grey" stroke-width="2" d="M993.609,-143.876C981.033,-134.893 965.45,-123.763 951.83,-114.034"/>
<polygon fill="grey" stroke="grey" stroke-width="2" points="953.82,-111.154 943.648,-108.19 949.751,-116.85 953.82,-111.154"/>
</g>
<!-- 37&#45;&gt;18 -->
<g id="edge33" class="edge"><title>37&#45;&gt;18</title>
<path fill="none" stroke="grey" stroke-width="2" d="M1301.54,-503.876C1284.09,-494.554 1262.32,-482.919 1243.64,-472.939"/>
<polygon fill="grey" stroke="grey" stroke-width="2" points="1245.22,-469.816 1234.75,-468.19 1241.92,-475.99 1245.22,-469.816"/>
</g>
<!-- 38&#45;&gt;0 -->
<g id="edge3" class="edge"><title>38&#45;&gt;0</title>
<path fill="none" stroke="grey" stroke-width="2" d="M1554.86,-82.0479C1531.58,-78.7746 1503.15,-74.9512 1477.58,-72 1281.81,-49.3995 1046.58,-29.3886 956.836,-22.0139"/>
<polygon fill="grey" stroke="grey" stroke-width="2" points="956.877,-18.5057 946.625,-21.1778 956.306,-25.4823 956.877,-18.5057"/>
</g>
<!-- 39&#45;&gt;15 -->
<g id="edge30" class="edge"><title>39&#45;&gt;15</title>
<path fill="none" stroke="grey" stroke-width="2" d="M921.252,-220.164C911.289,-218.654 901.2,-217.22 891.582,-216 721.669,-194.449 673.168,-215.036 501.28,-179.842"/>
<polygon fill="grey" stroke="grey" stroke-width="2" points="501.9,-176.397 491.397,-177.786 500.474,-183.25 501.9,-176.397"/>
</g>
<!-- 39&#45;&gt;36 -->
<g id="edge64" class="edge"><title>39&#45;&gt;36</title>
<path fill="none" stroke="grey" stroke-width="2" d="M1001.77,-215.697C1004.11,-207.898 1006.93,-198.509 1009.53,-189.829"/>
<polygon fill="grey" stroke="grey" stroke-width="2" points="1012.93,-190.688 1012.45,-180.104 1006.23,-188.677 1012.93,-190.688"/>
</g>
<!-- 40&#45;&gt;24 -->
<g id="edge42" class="edge"><title>40&#45;&gt;24</title>
<path fill="none" stroke="grey" stroke-width="2" d="M1894.2,-145.321C1891.29,-144.859 1888.41,-144.417 1885.58,-144 1735.25,-121.88 1696.64,-124.5 1545.58,-108 1524.08,-105.651 1500.85,-103.062 1479.22,-100.628"/>
<polygon fill="grey" stroke="grey" stroke-width="2" points="1479.4,-97.1268 1469.07,-99.4852 1478.62,-104.083 1479.4,-97.1268"/>
</g>
<!-- 40&#45;&gt;31 -->
<g id="edge55" class="edge"><title>40&#45;&gt;31</title>
<path fill="none" stroke="grey" stroke-width="2" d="M1894.23,-145.076C1891.32,-144.683 1888.43,-144.322 1885.58,-144 1684.15,-121.188 1176.72,-152.022 960.306,-107.503"/>
<polygon fill="grey" stroke="grey" stroke-width="2" points="960.736,-104.015 950.223,-105.325 959.259,-110.857 960.736,-104.015"/>
</g>
<!-- 40&#45;&gt;38 -->
<g id="edge69" class="edge"><title>40&#45;&gt;38</title>
<path fill="none" stroke="grey" stroke-width="2" d="M1894.15,-145.612C1891.26,-145.068 1888.4,-144.529 1885.58,-144 1807.73,-129.357 1717.81,-112.531 1660.6,-101.838"/>
<polygon fill="grey" stroke="grey" stroke-width="2" points="1661.13,-98.3768 1650.66,-99.9799 1659.84,-105.258 1661.13,-98.3768"/>
</g>
<!-- 41 -->
<g id="node42" class="node"><title>41</title>
<path fill="none" stroke="#56c9d8" stroke-width="2" d="M476.095,-252C476.095,-252 359.07,-252 359.07,-252 353.07,-252 347.07,-246 347.07,-240 347.07,-240 347.07,-228 347.07,-228 347.07,-222 353.07,-216 359.07,-216 359.07,-216 476.095,-216 476.095,-216 482.095,-216 488.095,-222 488.095,-228 488.095,-228 488.095,-240 488.095,-240 488.095,-246 482.095,-252 476.095,-252"/>
<text text-anchor="middle" x="417.582" y="-231" font-family="sans" font-size="10.00">qc_compress_from_sff_sample</text>
</g>
<!-- 41&#45;&gt;4 -->
<g id="edge12" class="edge"><title>41&#45;&gt;4</title>
<path fill="none" stroke="grey" stroke-width="2" d="M346.845,-217.811C298.114,-207.347 232.978,-193.361 180.701,-182.136"/>
<polygon fill="grey" stroke="grey" stroke-width="2" points="181.273,-178.679 170.761,-180.002 179.804,-185.523 181.273,-178.679"/>
</g>
<!-- 41&#45;&gt;15 -->
<g id="edge27" class="edge"><title>41&#45;&gt;15</title>
<path fill="none" stroke="grey" stroke-width="2" d="M425.493,-215.697C429.135,-207.728 433.537,-198.1 437.576,-189.264"/>
<polygon fill="grey" stroke="grey" stroke-width="2" points="440.789,-190.654 441.763,-180.104 434.423,-187.744 440.789,-190.654"/>
</g>
<!-- 42&#45;&gt;41 -->
<g id="edge72" class="edge"><title>42&#45;&gt;41</title>
<path fill="none" stroke="grey" stroke-width="2" d="M417.582,-287.697C417.582,-279.983 417.582,-270.712 417.582,-262.112"/>
<polygon fill="grey" stroke="grey" stroke-width="2" points="421.083,-262.104 417.582,-252.104 414.083,-262.104 421.083,-262.104"/>
</g>
<!-- 43&#45;&gt;0 -->
<g id="edge8" class="edge"><title>43&#45;&gt;0</title>
<path fill="none" stroke="grey" stroke-width="2" d="M836.492,-71.8761C850.741,-62.8083 868.429,-51.5523 883.818,-41.7592"/>
<polygon fill="grey" stroke="grey" stroke-width="2" points="886.012,-44.5114 892.57,-36.1898 882.254,-38.6057 886.012,-44.5114"/>
</g>
</g>
</svg>
