<?xml version="1.0" encoding="UTF-8" standalone="no"?>
<!DOCTYPE svg PUBLIC "-//W3C//DTD SVG 1.1//EN"
 "http://www.w3.org/Graphics/SVG/1.1/DTD/svg11.dtd">
<!-- Generated by graphviz version 2.38.0 (20140413.2041)
 -->
<!-- Title: snakemake_dag Pages: 1 -->
<svg width="1078pt" height="620pt"
 viewBox="0.00 0.00 1077.68 620.00" xmlns="http://www.w3.org/2000/svg" xmlns:xlink="http://www.w3.org/1999/xlink">
<g id="graph0" class="graph" transform="scale(1 1) rotate(0) translate(4 616)">
<title>snakemake_dag</title>
<polygon fill="white" stroke="none" points="-4,4 -4,-616 1073.68,-616 1073.68,4 -4,4"/>
<!-- 0 -->
<g id="node1" class="node"><title>0</title>
<path fill="none" stroke="#80d856" stroke-width="2" d="M71.3002,-180C71.3002,-180 11.8998,-180 11.8998,-180 5.89976,-180 -0.100241,-174 -0.100241,-168 -0.100241,-168 -0.100241,-156 -0.100241,-156 -0.100241,-150 5.89976,-144 11.8998,-144 11.8998,-144 71.3002,-144 71.3002,-144 77.3002,-144 83.3002,-150 83.3002,-156 83.3002,-156 83.3002,-168 83.3002,-168 83.3002,-174 77.3002,-180 71.3002,-180"/>
<text text-anchor="middle" x="41.6" y="-159" font-family="sans" font-size="10.00">assembly_merge</text>
</g>
<!-- 11 -->
<g id="node12" class="node"><title>11</title>
<path fill="none" stroke="#d8ac56" stroke-width="2" d="M136.02,-108C136.02,-108 69.18,-108 69.18,-108 63.18,-108 57.18,-102 57.18,-96 57.18,-96 57.18,-84 57.18,-84 57.18,-78 63.18,-72 69.18,-72 69.18,-72 136.02,-72 136.02,-72 142.02,-72 148.02,-78 148.02,-84 148.02,-84 148.02,-96 148.02,-96 148.02,-102 142.02,-108 136.02,-108"/>
<text text-anchor="middle" x="102.6" y="-87" font-family="sans" font-size="10.00">assembly_newbler</text>
</g>
<!-- 0&#45;&gt;11 -->
<g id="edge14" class="edge"><title>0&#45;&gt;11</title>
<path fill="none" stroke="grey" stroke-width="2" d="M56.6787,-143.697C63.9917,-135.305 72.91,-125.07 80.9351,-115.861"/>
<polygon fill="grey" stroke="grey" stroke-width="2" points="83.7637,-117.943 87.6948,-108.104 78.4863,-113.344 83.7637,-117.943"/>
</g>
<!-- 1 -->
<g id="node2" class="node"><title>1</title>
<path fill="none" stroke="#56d873" stroke-width="2" d="M1057.76,-180C1057.76,-180 893.444,-180 893.444,-180 887.444,-180 881.444,-174 881.444,-168 881.444,-168 881.444,-156 881.444,-156 881.444,-150 887.444,-144 893.444,-144 893.444,-144 1057.76,-144 1057.76,-144 1063.76,-144 1069.76,-150 1069.76,-156 1069.76,-156 1069.76,-168 1069.76,-168 1069.76,-174 1063.76,-180 1057.76,-180"/>
<text text-anchor="middle" x="975.6" y="-159" font-family="sans" font-size="10.00">report_fastqc_pyrobayes_from_sff_sample</text>
</g>
<!-- 5 -->
<g id="node6" class="node"><title>5</title>
<path fill="none" stroke="#56d882" stroke-width="2" d="M1014.13,-108C1014.13,-108 917.072,-108 917.072,-108 911.072,-108 905.072,-102 905.072,-96 905.072,-96 905.072,-84 905.072,-84 905.072,-78 911.072,-72 917.072,-72 917.072,-72 1014.13,-72 1014.13,-72 1020.13,-72 1026.13,-78 1026.13,-84 1026.13,-84 1026.13,-96 1026.13,-96 1026.13,-102 1020.13,-108 1014.13,-108"/>
<text text-anchor="middle" x="965.6" y="-87" font-family="sans" font-size="10.00">report_multiqc_pyrobayes</text>
</g>
<!-- 1&#45;&gt;5 -->
<g id="edge7" class="edge"><title>1&#45;&gt;5</title>
<path fill="none" stroke="grey" stroke-width="2" d="M973.128,-143.697C972.026,-135.983 970.702,-126.712 969.473,-118.112"/>
<polygon fill="grey" stroke="grey" stroke-width="2" points="972.923,-117.509 968.043,-108.104 965.993,-118.499 972.923,-117.509"/>
</g>
<!-- 12 -->
<g id="node13" class="node"><title>12</title>
<path fill="none" stroke="#d8bc56" stroke-width="2" d="M854.84,-108C854.84,-108 730.36,-108 730.36,-108 724.36,-108 718.36,-102 718.36,-96 718.36,-96 718.36,-84 718.36,-84 718.36,-78 724.36,-72 730.36,-72 730.36,-72 854.84,-72 854.84,-72 860.84,-72 866.84,-78 866.84,-84 866.84,-84 866.84,-96 866.84,-96 866.84,-102 860.84,-108 854.84,-108"/>
<text text-anchor="middle" x="792.6" y="-87" font-family="sans" font-size="10.00">report_multiqc_from_sff_sample</text>
</g>
<!-- 1&#45;&gt;12 -->
<g id="edge15" class="edge"><title>1&#45;&gt;12</title>
<path fill="none" stroke="grey" stroke-width="2" d="M930.833,-143.876C905.482,-134.179 873.589,-121.98 846.827,-111.743"/>
<polygon fill="grey" stroke="grey" stroke-width="2" points="847.812,-108.372 837.221,-108.068 845.311,-114.91 847.812,-108.372"/>
</g>
<!-- 18 -->
<g id="node19" class="node"><title>18</title>
<path fill="none" stroke="#56a9d8" stroke-width="2" d="M575.154,-108C575.154,-108 538.046,-108 538.046,-108 532.046,-108 526.046,-102 526.046,-96 526.046,-96 526.046,-84 526.046,-84 526.046,-78 532.046,-72 538.046,-72 538.046,-72 575.154,-72 575.154,-72 581.154,-72 587.154,-78 587.154,-84 587.154,-84 587.154,-96 587.154,-96 587.154,-102 581.154,-108 575.154,-108"/>
<text text-anchor="middle" x="556.6" y="-87" font-family="sans" font-size="10.00">multiqc_all</text>
</g>
<!-- 1&#45;&gt;18 -->
<g id="edge30" class="edge"><title>1&#45;&gt;18</title>
<path fill="none" stroke="grey" stroke-width="2" d="M881.321,-145.306C878.381,-144.86 875.469,-144.423 872.6,-144 753.02,-126.367 717.126,-140.351 597.315,-108.083"/>
<polygon fill="grey" stroke="grey" stroke-width="2" points="597.963,-104.631 587.393,-105.358 596.109,-111.381 597.963,-104.631"/>
</g>
<!-- 2 -->
<g id="node3" class="node"><title>2</title>
<path fill="none" stroke="#61d856" stroke-width="2" d="M696.992,-396C696.992,-396 550.208,-396 550.208,-396 544.208,-396 538.208,-390 538.208,-384 538.208,-384 538.208,-372 538.208,-372 538.208,-366 544.208,-360 550.208,-360 550.208,-360 696.992,-360 696.992,-360 702.992,-360 708.992,-366 708.992,-372 708.992,-372 708.992,-384 708.992,-384 708.992,-390 702.992,-396 696.992,-396"/>
<text text-anchor="middle" x="623.6" y="-375" font-family="sans" font-size="10.00">qc_decompress_pyrobayes_fq_sample</text>
</g>
<!-- 9 -->
<g id="node10" class="node"><title>9</title>
<path fill="none" stroke="#d89c56" stroke-width="2" d="M463.453,-324C463.453,-324 347.747,-324 347.747,-324 341.747,-324 335.747,-318 335.747,-312 335.747,-312 335.747,-300 335.747,-300 335.747,-294 341.747,-288 347.747,-288 347.747,-288 463.453,-288 463.453,-288 469.453,-288 475.453,-294 475.453,-300 475.453,-300 475.453,-312 475.453,-312 475.453,-318 469.453,-324 463.453,-324"/>
<text text-anchor="middle" x="405.6" y="-303" font-family="sans" font-size="10.00">qc_snowhite_from_sff_sample</text>
</g>
<!-- 2&#45;&gt;9 -->
<g id="edge10" class="edge"><title>2&#45;&gt;9</title>
<path fill="none" stroke="grey" stroke-width="2" d="M570.55,-359.966C539.826,-350.1 500.964,-337.622 468.68,-327.255"/>
<polygon fill="grey" stroke="grey" stroke-width="2" points="469.479,-323.836 458.888,-324.111 467.339,-330.501 469.479,-323.836"/>
</g>
<!-- 3 -->
<g id="node4" class="node"><title>3</title>
<path fill="none" stroke="#d85656" stroke-width="2" d="M495.229,-108C495.229,-108 361.971,-108 361.971,-108 355.971,-108 349.971,-102 349.971,-96 349.971,-96 349.971,-84 349.971,-84 349.971,-78 355.971,-72 361.971,-72 361.971,-72 495.229,-72 495.229,-72 501.229,-72 507.229,-78 507.229,-84 507.229,-84 507.229,-96 507.229,-96 507.229,-102 501.229,-108 495.229,-108"/>
<text text-anchor="middle" x="428.6" y="-87" font-family="sans" font-size="10.00">report_multiqc_from_fastq_sample</text>
</g>
<!-- 16 -->
<g id="node17" class="node"><title>16</title>
<path fill="none" stroke="#56c9d8" stroke-width="2" d="M571.6,-36C571.6,-36 541.6,-36 541.6,-36 535.6,-36 529.6,-30 529.6,-24 529.6,-24 529.6,-12 529.6,-12 529.6,-6 535.6,-0 541.6,-0 541.6,-0 571.6,-0 571.6,-0 577.6,-0 583.6,-6 583.6,-12 583.6,-12 583.6,-24 583.6,-24 583.6,-30 577.6,-36 571.6,-36"/>
<text text-anchor="middle" x="556.6" y="-15" font-family="sans" font-size="10.00">all</text>
</g>
<!-- 3&#45;&gt;16 -->
<g id="edge22" class="edge"><title>3&#45;&gt;16</title>
<path fill="none" stroke="grey" stroke-width="2" d="M459.912,-71.8761C478.23,-61.8584 501.432,-49.17 520.515,-38.7338"/>
<polygon fill="grey" stroke="grey" stroke-width="2" points="522.419,-41.6821 529.513,-33.8131 519.06,-35.5405 522.419,-41.6821"/>
</g>
<!-- 4 -->
<g id="node5" class="node"><title>4</title>
<path fill="none" stroke="#d86656" stroke-width="2" d="M431.563,-468C431.563,-468 319.637,-468 319.637,-468 313.637,-468 307.637,-462 307.637,-456 307.637,-456 307.637,-444 307.637,-444 307.637,-438 313.637,-432 319.637,-432 319.637,-432 431.563,-432 431.563,-432 437.563,-432 443.563,-438 443.563,-444 443.563,-444 443.563,-456 443.563,-456 443.563,-462 437.563,-468 431.563,-468"/>
<text text-anchor="middle" x="375.6" y="-447" font-family="sans" font-size="10.00">raw_make_link_fastq_sample</text>
</g>
<!-- 17 -->
<g id="node18" class="node"><title>17</title>
<path fill="none" stroke="#56b9d8" stroke-width="2" d="M672.036,-180C672.036,-180 525.164,-180 525.164,-180 519.164,-180 513.164,-174 513.164,-168 513.164,-168 513.164,-156 513.164,-156 513.164,-150 519.164,-144 525.164,-144 525.164,-144 672.036,-144 672.036,-144 678.036,-144 684.036,-150 684.036,-156 684.036,-156 684.036,-168 684.036,-168 684.036,-174 678.036,-180 672.036,-180"/>
<text text-anchor="middle" x="598.6" y="-159" font-family="sans" font-size="10.00">report_fastqc_raw_from_fastq_sample</text>
</g>
<!-- 4&#45;&gt;17 -->
<g id="edge28" class="edge"><title>4&#45;&gt;17</title>
<path fill="none" stroke="grey" stroke-width="2" d="M417.809,-431.801C435.645,-423.026 455.692,-411.006 470.6,-396 532.119,-334.078 572.601,-236.483 589.553,-189.718"/>
<polygon fill="grey" stroke="grey" stroke-width="2" points="592.857,-190.873 592.904,-180.279 586.26,-188.532 592.857,-190.873"/>
</g>
<!-- 23 -->
<g id="node24" class="node"><title>23</title>
<path fill="none" stroke="#8fd856" stroke-width="2" d="M313.44,-396C313.44,-396 177.76,-396 177.76,-396 171.76,-396 165.76,-390 165.76,-384 165.76,-384 165.76,-372 165.76,-372 165.76,-366 171.76,-360 177.76,-360 177.76,-360 313.44,-360 313.44,-360 319.44,-360 325.44,-366 325.44,-372 325.44,-372 325.44,-384 325.44,-384 325.44,-390 319.44,-396 313.44,-396"/>
<text text-anchor="middle" x="245.6" y="-375" font-family="sans" font-size="10.00">qc_decompress_from_fastq_sample</text>
</g>
<!-- 4&#45;&gt;23 -->
<g id="edge40" class="edge"><title>4&#45;&gt;23</title>
<path fill="none" stroke="grey" stroke-width="2" d="M343.798,-431.876C326.486,-422.554 304.879,-410.919 286.344,-400.939"/>
<polygon fill="grey" stroke="grey" stroke-width="2" points="287.988,-397.849 277.524,-396.19 284.669,-404.012 287.988,-397.849"/>
</g>
<!-- 5&#45;&gt;16 -->
<g id="edge23" class="edge"><title>5&#45;&gt;16</title>
<path fill="none" stroke="grey" stroke-width="2" d="M904.634,-77.2959C894.928,-75.487 884.994,-73.6674 875.6,-72 773.915,-53.9515 653.651,-34.4749 594.014,-24.9419"/>
<polygon fill="grey" stroke="grey" stroke-width="2" points="594.371,-21.4547 583.945,-23.3347 593.268,-28.3672 594.371,-21.4547"/>
</g>
<!-- 6 -->
<g id="node7" class="node"><title>6</title>
<path fill="none" stroke="#d87556" stroke-width="2" d="M851.647,-180C851.647,-180 713.553,-180 713.553,-180 707.553,-180 701.553,-174 701.553,-168 701.553,-168 701.553,-156 701.553,-156 701.553,-150 707.553,-144 713.553,-144 713.553,-144 851.647,-144 851.647,-144 857.647,-144 863.647,-150 863.647,-156 863.647,-156 863.647,-168 863.647,-168 863.647,-174 857.647,-180 851.647,-180"/>
<text text-anchor="middle" x="782.6" y="-159" font-family="sans" font-size="10.00">report_fastqc_raw_from_sff_sample</text>
</g>
<!-- 6&#45;&gt;12 -->
<g id="edge16" class="edge"><title>6&#45;&gt;12</title>
<path fill="none" stroke="grey" stroke-width="2" d="M785.072,-143.697C786.174,-135.983 787.498,-126.712 788.727,-118.112"/>
<polygon fill="grey" stroke="grey" stroke-width="2" points="792.207,-118.499 790.157,-108.104 785.277,-117.509 792.207,-118.499"/>
</g>
<!-- 6&#45;&gt;18 -->
<g id="edge31" class="edge"><title>6&#45;&gt;18</title>
<path fill="none" stroke="grey" stroke-width="2" d="M713.951,-143.921C680.723,-135.1 640.19,-123.526 597.062,-108.333"/>
<polygon fill="grey" stroke="grey" stroke-width="2" points="598.123,-104.996 587.528,-104.93 595.77,-111.589 598.123,-104.996"/>
</g>
<!-- 19 -->
<g id="node20" class="node"><title>19</title>
<path fill="none" stroke="#569ad8" stroke-width="2" d="M688.519,-108C688.519,-108 616.681,-108 616.681,-108 610.681,-108 604.681,-102 604.681,-96 604.681,-96 604.681,-84 604.681,-84 604.681,-78 610.681,-72 616.681,-72 616.681,-72 688.519,-72 688.519,-72 694.519,-72 700.519,-78 700.519,-84 700.519,-84 700.519,-96 700.519,-96 700.519,-102 694.519,-108 688.519,-108"/>
<text text-anchor="middle" x="652.6" y="-87" font-family="sans" font-size="10.00">report_multiqc_raw</text>
</g>
<!-- 6&#45;&gt;19 -->
<g id="edge35" class="edge"><title>6&#45;&gt;19</title>
<path fill="none" stroke="grey" stroke-width="2" d="M750.798,-143.876C733.486,-134.554 711.879,-122.919 693.344,-112.939"/>
<polygon fill="grey" stroke="grey" stroke-width="2" points="694.988,-109.849 684.524,-108.19 691.669,-116.012 694.988,-109.849"/>
</g>
<!-- 7 -->
<g id="node8" class="node"><title>7</title>
<path fill="none" stroke="#d88556" stroke-width="2" d="M449.177,-396C449.177,-396 356.023,-396 356.023,-396 350.023,-396 344.023,-390 344.023,-384 344.023,-384 344.023,-372 344.023,-372 344.023,-366 350.023,-360 356.023,-360 356.023,-360 449.177,-360 449.177,-360 455.177,-360 461.177,-366 461.177,-372 461.177,-372 461.177,-384 461.177,-384 461.177,-390 455.177,-396 449.177,-396"/>
<text text-anchor="middle" x="402.6" y="-375" font-family="sans" font-size="10.00">raw_make_link_adaptors</text>
</g>
<!-- 7&#45;&gt;9 -->
<g id="edge11" class="edge"><title>7&#45;&gt;9</title>
<path fill="none" stroke="grey" stroke-width="2" d="M403.342,-359.697C403.672,-351.983 404.069,-342.712 404.438,-334.112"/>
<polygon fill="grey" stroke="grey" stroke-width="2" points="407.935,-334.245 404.867,-324.104 400.942,-333.945 407.935,-334.245"/>
</g>
<!-- 20 -->
<g id="node21" class="node"><title>20</title>
<path fill="none" stroke="#afd856" stroke-width="2" d="M305.842,-324C305.842,-324 181.358,-324 181.358,-324 175.358,-324 169.358,-318 169.358,-312 169.358,-312 169.358,-300 169.358,-300 169.358,-294 175.358,-288 181.358,-288 181.358,-288 305.842,-288 305.842,-288 311.842,-288 317.842,-294 317.842,-300 317.842,-300 317.842,-312 317.842,-312 317.842,-318 311.842,-324 305.842,-324"/>
<text text-anchor="middle" x="243.6" y="-303" font-family="sans" font-size="10.00">qc_snowhite_from_fastq_sample</text>
</g>
<!-- 7&#45;&gt;20 -->
<g id="edge37" class="edge"><title>7&#45;&gt;20</title>
<path fill="none" stroke="grey" stroke-width="2" d="M363.704,-359.876C341.968,-350.307 314.696,-338.3 291.636,-328.148"/>
<polygon fill="grey" stroke="grey" stroke-width="2" points="292.932,-324.894 282.369,-324.068 290.111,-331.301 292.932,-324.894"/>
</g>
<!-- 8 -->
<g id="node9" class="node"><title>8</title>
<path fill="none" stroke="#56d8c1" stroke-width="2" d="M261.002,-252C261.002,-252 134.198,-252 134.198,-252 128.198,-252 122.198,-246 122.198,-240 122.198,-240 122.198,-228 122.198,-228 122.198,-222 128.198,-216 134.198,-216 134.198,-216 261.002,-216 261.002,-216 267.002,-216 273.002,-222 273.002,-228 273.002,-228 273.002,-240 273.002,-240 273.002,-246 267.002,-252 261.002,-252"/>
<text text-anchor="middle" x="197.6" y="-231" font-family="sans" font-size="10.00">qc_compress_from_fastq_sample</text>
</g>
<!-- 8&#45;&gt;0 -->
<g id="edge1" class="edge"><title>8&#45;&gt;0</title>
<path fill="none" stroke="grey" stroke-width="2" d="M159.438,-215.876C138.207,-206.349 111.592,-194.407 89.0313,-184.283"/>
<polygon fill="grey" stroke="grey" stroke-width="2" points="90.1944,-180.969 79.638,-180.068 87.3287,-187.356 90.1944,-180.969"/>
</g>
<!-- 21 -->
<g id="node22" class="node"><title>21</title>
<path fill="none" stroke="#9fd856" stroke-width="2" d="M281.654,-180C281.654,-180 113.546,-180 113.546,-180 107.546,-180 101.546,-174 101.546,-168 101.546,-168 101.546,-156 101.546,-156 101.546,-150 107.546,-144 113.546,-144 113.546,-144 281.654,-144 281.654,-144 287.654,-144 293.654,-150 293.654,-156 293.654,-156 293.654,-168 293.654,-168 293.654,-174 287.654,-180 281.654,-180"/>
<text text-anchor="middle" x="197.6" y="-159" font-family="sans" font-size="10.00">report_fastqc_snowhite_from_fastq_sample</text>
</g>
<!-- 8&#45;&gt;21 -->
<g id="edge38" class="edge"><title>8&#45;&gt;21</title>
<path fill="none" stroke="grey" stroke-width="2" d="M197.6,-215.697C197.6,-207.983 197.6,-198.712 197.6,-190.112"/>
<polygon fill="grey" stroke="grey" stroke-width="2" points="201.1,-190.104 197.6,-180.104 194.1,-190.104 201.1,-190.104"/>
</g>
<!-- 25 -->
<g id="node26" class="node"><title>25</title>
<path fill="none" stroke="#c6d856" stroke-width="2" d="M462.113,-252C462.113,-252 345.087,-252 345.087,-252 339.087,-252 333.087,-246 333.087,-240 333.087,-240 333.087,-228 333.087,-228 333.087,-222 339.087,-216 345.087,-216 345.087,-216 462.113,-216 462.113,-216 468.113,-216 474.113,-222 474.113,-228 474.113,-228 474.113,-240 474.113,-240 474.113,-246 468.113,-252 462.113,-252"/>
<text text-anchor="middle" x="403.6" y="-231" font-family="sans" font-size="10.00">qc_compress_from_sff_sample</text>
</g>
<!-- 9&#45;&gt;25 -->
<g id="edge41" class="edge"><title>9&#45;&gt;25</title>
<path fill="none" stroke="grey" stroke-width="2" d="M405.106,-287.697C404.885,-279.983 404.62,-270.712 404.375,-262.112"/>
<polygon fill="grey" stroke="grey" stroke-width="2" points="407.873,-262 404.089,-252.104 400.876,-262.2 407.873,-262"/>
</g>
<!-- 10 -->
<g id="node11" class="node"><title>10</title>
<path fill="none" stroke="#56d892" stroke-width="2" d="M319.637,-108C319.637,-108 227.563,-108 227.563,-108 221.563,-108 215.563,-102 215.563,-96 215.563,-96 215.563,-84 215.563,-84 215.563,-78 221.563,-72 227.563,-72 227.563,-72 319.637,-72 319.637,-72 325.637,-72 331.637,-78 331.637,-84 331.637,-84 331.637,-96 331.637,-96 331.637,-102 325.637,-108 319.637,-108"/>
<text text-anchor="middle" x="273.6" y="-87" font-family="sans" font-size="10.00">report_multiqc_snowhite</text>
</g>
<!-- 10&#45;&gt;16 -->
<g id="edge26" class="edge"><title>10&#45;&gt;16</title>
<path fill="none" stroke="grey" stroke-width="2" d="M331.698,-74.2291C334.708,-73.473 337.689,-72.7264 340.6,-72 403.376,-56.3344 476.515,-38.4693 519.555,-27.9959"/>
<polygon fill="grey" stroke="grey" stroke-width="2" points="520.415,-31.3887 529.305,-25.6245 518.761,-24.587 520.415,-31.3887"/>
</g>
<!-- 11&#45;&gt;16 -->
<g id="edge27" class="edge"><title>11&#45;&gt;16</title>
<path fill="none" stroke="grey" stroke-width="2" d="M147.886,-81.4789C166.121,-78.4814 187.353,-75.0303 206.6,-72 320.465,-54.0732 455.355,-33.9654 519.342,-24.4951"/>
<polygon fill="grey" stroke="grey" stroke-width="2" points="519.974,-27.9399 529.354,-23.0146 518.949,-21.0152 519.974,-27.9399"/>
</g>
<!-- 12&#45;&gt;16 -->
<g id="edge21" class="edge"><title>12&#45;&gt;16</title>
<path fill="none" stroke="grey" stroke-width="2" d="M735.17,-71.9656C690.958,-58.8519 631.181,-41.1216 593.251,-29.8712"/>
<polygon fill="grey" stroke="grey" stroke-width="2" points="594.216,-26.5065 583.633,-27.0183 592.225,-33.2175 594.216,-26.5065"/>
</g>
<!-- 13 -->
<g id="node14" class="node"><title>13</title>
<path fill="none" stroke="#56d8d0" stroke-width="2" d="M704.516,-468C704.516,-468 602.684,-468 602.684,-468 596.684,-468 590.684,-462 590.684,-456 590.684,-456 590.684,-444 590.684,-444 590.684,-438 596.684,-432 602.684,-432 602.684,-432 704.516,-432 704.516,-432 710.516,-432 716.516,-438 716.516,-444 716.516,-444 716.516,-456 716.516,-456 716.516,-462 710.516,-468 704.516,-468"/>
<text text-anchor="middle" x="653.6" y="-447" font-family="sans" font-size="10.00">qc_join_fasta_qual_sample</text>
</g>
<!-- 13&#45;&gt;1 -->
<g id="edge3" class="edge"><title>13&#45;&gt;1</title>
<path fill="none" stroke="grey" stroke-width="2" d="M674.833,-431.799C687.383,-421.537 703.524,-408.174 717.6,-396 803.904,-321.354 903.451,-229.881 949.608,-187.149"/>
<polygon fill="grey" stroke="grey" stroke-width="2" points="952.114,-189.599 957.07,-180.235 947.356,-184.464 952.114,-189.599"/>
</g>
<!-- 13&#45;&gt;2 -->
<g id="edge4" class="edge"><title>13&#45;&gt;2</title>
<path fill="none" stroke="grey" stroke-width="2" d="M646.184,-431.697C642.806,-423.813 638.73,-414.304 634.977,-405.546"/>
<polygon fill="grey" stroke="grey" stroke-width="2" points="638.087,-403.917 630.93,-396.104 631.653,-406.675 638.087,-403.917"/>
</g>
<!-- 14 -->
<g id="node15" class="node"><title>14</title>
<path fill="none" stroke="#567bd8" stroke-width="2" d="M483.265,-180C483.265,-180 323.935,-180 323.935,-180 317.935,-180 311.935,-174 311.935,-168 311.935,-168 311.935,-156 311.935,-156 311.935,-150 317.935,-144 323.935,-144 323.935,-144 483.265,-144 483.265,-144 489.265,-144 495.265,-150 495.265,-156 495.265,-156 495.265,-168 495.265,-168 495.265,-174 489.265,-180 483.265,-180"/>
<text text-anchor="middle" x="403.6" y="-159" font-family="sans" font-size="10.00">report_fastqc_snowhite_from_sff_sample</text>
</g>
<!-- 14&#45;&gt;10 -->
<g id="edge13" class="edge"><title>14&#45;&gt;10</title>
<path fill="none" stroke="grey" stroke-width="2" d="M371.798,-143.876C354.486,-134.554 332.879,-122.919 314.344,-112.939"/>
<polygon fill="grey" stroke="grey" stroke-width="2" points="315.988,-109.849 305.524,-108.19 312.669,-116.012 315.988,-109.849"/>
</g>
<!-- 14&#45;&gt;12 -->
<g id="edge17" class="edge"><title>14&#45;&gt;12</title>
<path fill="none" stroke="grey" stroke-width="2" d="M495.248,-145.444C565.18,-133.518 656.807,-117.76 707.984,-108.268"/>
<polygon fill="grey" stroke="grey" stroke-width="2" points="708.78,-111.68 717.965,-106.399 707.491,-104.8 708.78,-111.68"/>
</g>
<!-- 14&#45;&gt;18 -->
<g id="edge33" class="edge"><title>14&#45;&gt;18</title>
<path fill="none" stroke="grey" stroke-width="2" d="M441.028,-143.876C463.966,-133.382 493.31,-119.956 516.689,-109.26"/>
<polygon fill="grey" stroke="grey" stroke-width="2" points="518.343,-112.352 525.981,-105.009 515.431,-105.987 518.343,-112.352"/>
</g>
<!-- 15 -->
<g id="node16" class="node"><title>15</title>
<path fill="none" stroke="#d8cb56" stroke-width="2" d="M693.96,-540C693.96,-540 613.24,-540 613.24,-540 607.24,-540 601.24,-534 601.24,-528 601.24,-528 601.24,-516 601.24,-516 601.24,-510 607.24,-504 613.24,-504 613.24,-504 693.96,-504 693.96,-504 699.96,-504 705.96,-510 705.96,-516 705.96,-516 705.96,-528 705.96,-528 705.96,-534 699.96,-540 693.96,-540"/>
<text text-anchor="middle" x="653.6" y="-519" font-family="sans" font-size="10.00">qc_pyrobayes_sample</text>
</g>
<!-- 15&#45;&gt;13 -->
<g id="edge18" class="edge"><title>15&#45;&gt;13</title>
<path fill="none" stroke="grey" stroke-width="2" d="M653.6,-503.697C653.6,-495.983 653.6,-486.712 653.6,-478.112"/>
<polygon fill="grey" stroke="grey" stroke-width="2" points="657.1,-478.104 653.6,-468.104 650.1,-478.104 657.1,-478.104"/>
</g>
<!-- 17&#45;&gt;3 -->
<g id="edge5" class="edge"><title>17&#45;&gt;3</title>
<path fill="none" stroke="grey" stroke-width="2" d="M557.013,-143.876C533.567,-134.222 504.096,-122.087 479.303,-111.878"/>
<polygon fill="grey" stroke="grey" stroke-width="2" points="480.631,-108.639 470.052,-108.068 477.966,-115.112 480.631,-108.639"/>
</g>
<!-- 17&#45;&gt;18 -->
<g id="edge29" class="edge"><title>17&#45;&gt;18</title>
<path fill="none" stroke="grey" stroke-width="2" d="M588.218,-143.697C583.335,-135.559 577.413,-125.689 572.021,-116.701"/>
<polygon fill="grey" stroke="grey" stroke-width="2" points="575.009,-114.879 566.863,-108.104 569.006,-118.48 575.009,-114.879"/>
</g>
<!-- 17&#45;&gt;19 -->
<g id="edge34" class="edge"><title>17&#45;&gt;19</title>
<path fill="none" stroke="grey" stroke-width="2" d="M611.948,-143.697C618.357,-135.389 626.158,-125.277 633.206,-116.141"/>
<polygon fill="grey" stroke="grey" stroke-width="2" points="636.068,-118.16 639.405,-108.104 630.526,-113.884 636.068,-118.16"/>
</g>
<!-- 18&#45;&gt;16 -->
<g id="edge24" class="edge"><title>18&#45;&gt;16</title>
<path fill="none" stroke="grey" stroke-width="2" d="M556.6,-71.6966C556.6,-63.9827 556.6,-54.7125 556.6,-46.1124"/>
<polygon fill="grey" stroke="grey" stroke-width="2" points="560.1,-46.1043 556.6,-36.1043 553.1,-46.1044 560.1,-46.1043"/>
</g>
<!-- 19&#45;&gt;16 -->
<g id="edge25" class="edge"><title>19&#45;&gt;16</title>
<path fill="none" stroke="grey" stroke-width="2" d="M628.87,-71.6966C616.663,-62.796 601.615,-51.8232 588.416,-42.1989"/>
<polygon fill="grey" stroke="grey" stroke-width="2" points="590.2,-39.1681 580.057,-36.1043 586.075,-44.8241 590.2,-39.1681"/>
</g>
<!-- 20&#45;&gt;8 -->
<g id="edge9" class="edge"><title>20&#45;&gt;8</title>
<path fill="none" stroke="grey" stroke-width="2" d="M232.229,-287.697C226.882,-279.559 220.396,-269.689 214.489,-260.701"/>
<polygon fill="grey" stroke="grey" stroke-width="2" points="217.257,-258.539 208.84,-252.104 211.407,-262.384 217.257,-258.539"/>
</g>
<!-- 21&#45;&gt;3 -->
<g id="edge6" class="edge"><title>21&#45;&gt;3</title>
<path fill="none" stroke="grey" stroke-width="2" d="M253.814,-143.966C286.51,-134.057 327.904,-121.514 362.201,-111.121"/>
<polygon fill="grey" stroke="grey" stroke-width="2" points="363.579,-114.361 372.134,-108.111 361.549,-107.661 363.579,-114.361"/>
</g>
<!-- 21&#45;&gt;10 -->
<g id="edge12" class="edge"><title>21&#45;&gt;10</title>
<path fill="none" stroke="grey" stroke-width="2" d="M216.387,-143.697C225.774,-135.05 237.284,-124.449 247.513,-115.027"/>
<polygon fill="grey" stroke="grey" stroke-width="2" points="250.045,-117.454 255.03,-108.104 245.303,-112.305 250.045,-117.454"/>
</g>
<!-- 21&#45;&gt;18 -->
<g id="edge32" class="edge"><title>21&#45;&gt;18</title>
<path fill="none" stroke="grey" stroke-width="2" d="M293.689,-145.313C374.493,-132.085 481.249,-114.509 515.897,-107.281"/>
<polygon fill="grey" stroke="grey" stroke-width="2" points="516.932,-110.632 525.856,-104.921 515.318,-103.821 516.932,-110.632"/>
</g>
<!-- 22 -->
<g id="node23" class="node"><title>22</title>
<path fill="none" stroke="#5663d8" stroke-width="2" d="M829.174,-540C829.174,-540 736.026,-540 736.026,-540 730.026,-540 724.026,-534 724.026,-528 724.026,-528 724.026,-516 724.026,-516 724.026,-510 730.026,-504 736.026,-504 736.026,-504 829.174,-504 829.174,-504 835.174,-504 841.174,-510 841.174,-516 841.174,-516 841.174,-528 841.174,-528 841.174,-534 835.174,-540 829.174,-540"/>
<text text-anchor="middle" x="782.6" y="-519" font-family="sans" font-size="10.00">raw_sff_to_fastq_sample</text>
</g>
<!-- 22&#45;&gt;6 -->
<g id="edge8" class="edge"><title>22&#45;&gt;6</title>
<path fill="none" stroke="grey" stroke-width="2" d="M782.6,-503.951C782.6,-477.292 782.6,-424.115 782.6,-379 782.6,-379 782.6,-379 782.6,-305 782.6,-264.996 782.6,-218.653 782.6,-190.08"/>
<polygon fill="grey" stroke="grey" stroke-width="2" points="786.1,-190.049 782.6,-180.049 779.1,-190.049 786.1,-190.049"/>
</g>
<!-- 23&#45;&gt;20 -->
<g id="edge36" class="edge"><title>23&#45;&gt;20</title>
<path fill="none" stroke="grey" stroke-width="2" d="M245.106,-359.697C244.885,-351.983 244.62,-342.712 244.375,-334.112"/>
<polygon fill="grey" stroke="grey" stroke-width="2" points="247.873,-334 244.089,-324.104 240.876,-334.2 247.873,-334"/>
</g>
<!-- 24 -->
<g id="node25" class="node"><title>24</title>
<path fill="none" stroke="#56d85b" stroke-width="2" d="M769.174,-612C769.174,-612 666.026,-612 666.026,-612 660.026,-612 654.026,-606 654.026,-600 654.026,-600 654.026,-588 654.026,-588 654.026,-582 660.026,-576 666.026,-576 666.026,-576 769.174,-576 769.174,-576 775.174,-576 781.174,-582 781.174,-588 781.174,-588 781.174,-600 781.174,-600 781.174,-606 775.174,-612 769.174,-612"/>
<text text-anchor="middle" x="717.6" y="-591" font-family="sans" font-size="10.00">raw_make_link_sff_sample</text>
</g>
<!-- 24&#45;&gt;15 -->
<g id="edge20" class="edge"><title>24&#45;&gt;15</title>
<path fill="none" stroke="grey" stroke-width="2" d="M701.78,-575.697C694.03,-567.22 684.561,-556.864 676.076,-547.583"/>
<polygon fill="grey" stroke="grey" stroke-width="2" points="678.569,-545.123 669.238,-540.104 673.403,-549.846 678.569,-545.123"/>
</g>
<!-- 24&#45;&gt;22 -->
<g id="edge39" class="edge"><title>24&#45;&gt;22</title>
<path fill="none" stroke="grey" stroke-width="2" d="M733.667,-575.697C741.539,-567.22 751.155,-556.864 759.773,-547.583"/>
<polygon fill="grey" stroke="grey" stroke-width="2" points="762.478,-549.814 766.717,-540.104 757.348,-545.051 762.478,-549.814"/>
</g>
<!-- 25&#45;&gt;0 -->
<g id="edge2" class="edge"><title>25&#45;&gt;0</title>
<path fill="none" stroke="grey" stroke-width="2" d="M333.056,-222.263C260.322,-210.978 150.748,-193.327 93.5289,-179.965"/>
<polygon fill="grey" stroke="grey" stroke-width="2" points="94.0184,-176.483 83.4748,-177.523 92.3659,-183.285 94.0184,-176.483"/>
</g>
<!-- 25&#45;&gt;14 -->
<g id="edge19" class="edge"><title>25&#45;&gt;14</title>
<path fill="none" stroke="grey" stroke-width="2" d="M403.6,-215.697C403.6,-207.983 403.6,-198.712 403.6,-190.112"/>
<polygon fill="grey" stroke="grey" stroke-width="2" points="407.1,-190.104 403.6,-180.104 400.1,-190.104 407.1,-190.104"/>
</g>
</g>
</svg>
