<?xml version="1.0" encoding="UTF-8" standalone="no"?>
<!DOCTYPE svg PUBLIC "-//W3C//DTD SVG 1.1//EN"
 "http://www.w3.org/Graphics/SVG/1.1/DTD/svg11.dtd">
<!-- Generated by graphviz version 2.38.0 (20140413.2041)
 -->
<!-- Title: snakemake_dag Pages: 1 -->
<svg width="1895pt" height="692pt"
 viewBox="0.00 0.00 1894.57 692.00" xmlns="http://www.w3.org/2000/svg" xmlns:xlink="http://www.w3.org/1999/xlink">
<g id="graph0" class="graph" transform="scale(1 1) rotate(0) translate(4 688)">
<title>snakemake_dag</title>
<polygon fill="white" stroke="none" points="-4,4 -4,-688 1890.57,-688 1890.57,4 -4,4"/>
<!-- 0 -->
<g id="node1" class="node"><title>0</title>
<path fill="none" stroke="#d85656" stroke-width="2" d="M1653.02,-108C1653.02,-108 1581.18,-108 1581.18,-108 1575.18,-108 1569.18,-102 1569.18,-96 1569.18,-96 1569.18,-84 1569.18,-84 1569.18,-78 1575.18,-72 1581.18,-72 1581.18,-72 1653.02,-72 1653.02,-72 1659.02,-72 1665.02,-78 1665.02,-84 1665.02,-84 1665.02,-96 1665.02,-96 1665.02,-102 1659.02,-108 1653.02,-108"/>
<text text-anchor="middle" x="1617.1" y="-87" font-family="sans" font-size="10.00">report_multiqc_raw</text>
</g>
<!-- 13 -->
<g id="node14" class="node"><title>13</title>
<path fill="none" stroke="#56d8a2" stroke-width="2" d="M1063.1,-36C1063.1,-36 1033.1,-36 1033.1,-36 1027.1,-36 1021.1,-30 1021.1,-24 1021.1,-24 1021.1,-12 1021.1,-12 1021.1,-6 1027.1,-0 1033.1,-0 1033.1,-0 1063.1,-0 1063.1,-0 1069.1,-0 1075.1,-6 1075.1,-12 1075.1,-12 1075.1,-24 1075.1,-24 1075.1,-30 1069.1,-36 1063.1,-36"/>
<text text-anchor="middle" x="1048.1" y="-15" font-family="sans" font-size="10.00">all</text>
</g>
<!-- 0&#45;&gt;13 -->
<g id="edge20" class="edge"><title>0&#45;&gt;13</title>
<path fill="none" stroke="grey" stroke-width="2" d="M1569.08,-83.0922C1458.05,-69.4331 1185.46,-35.8986 1085.57,-23.6099"/>
<polygon fill="grey" stroke="grey" stroke-width="2" points="1085.71,-20.1006 1075.36,-22.3533 1084.85,-27.0482 1085.71,-20.1006"/>
</g>
<!-- 1 -->
<g id="node2" class="node"><title>1</title>
<path fill="none" stroke="#afd856" stroke-width="2" d="M269.519,-108C269.519,-108 202.679,-108 202.679,-108 196.679,-108 190.679,-102 190.679,-96 190.679,-96 190.679,-84 190.679,-84 190.679,-78 196.679,-72 202.679,-72 202.679,-72 269.519,-72 269.519,-72 275.519,-72 281.519,-78 281.519,-84 281.519,-84 281.519,-96 281.519,-96 281.519,-102 275.519,-108 269.519,-108"/>
<text text-anchor="middle" x="236.099" y="-87" font-family="sans" font-size="10.00">assembly_newbler</text>
</g>
<!-- 1&#45;&gt;13 -->
<g id="edge23" class="edge"><title>1&#45;&gt;13</title>
<path fill="none" stroke="grey" stroke-width="2" d="M281.496,-85.0865C426.69,-72.5698 877.99,-33.6646 1010.91,-22.2063"/>
<polygon fill="grey" stroke="grey" stroke-width="2" points="1011.33,-25.6828 1020.99,-21.3368 1010.73,-18.7087 1011.33,-25.6828"/>
</g>
<!-- 2 -->
<g id="node3" class="node"><title>2</title>
<path fill="none" stroke="#68d856" stroke-width="2" d="M950.459,-612C950.459,-612 869.739,-612 869.739,-612 863.739,-612 857.739,-606 857.739,-600 857.739,-600 857.739,-588 857.739,-588 857.739,-582 863.739,-576 869.739,-576 869.739,-576 950.459,-576 950.459,-576 956.459,-576 962.459,-582 962.459,-588 962.459,-588 962.459,-600 962.459,-600 962.459,-606 956.459,-612 950.459,-612"/>
<text text-anchor="middle" x="910.099" y="-591" font-family="sans" font-size="10.00">qc_pyrobayes_sample</text>
</g>
<!-- 4 -->
<g id="node5" class="node"><title>4</title>
<path fill="none" stroke="#97d856" stroke-width="2" d="M463.015,-540C463.015,-540 361.183,-540 361.183,-540 355.183,-540 349.183,-534 349.183,-528 349.183,-528 349.183,-516 349.183,-516 349.183,-510 355.183,-504 361.183,-504 361.183,-504 463.015,-504 463.015,-504 469.015,-504 475.015,-510 475.015,-516 475.015,-516 475.015,-528 475.015,-528 475.015,-534 469.015,-540 463.015,-540"/>
<text text-anchor="middle" x="412.099" y="-519" font-family="sans" font-size="10.00">qc_join_fasta_qual_sample</text>
</g>
<!-- 2&#45;&gt;4 -->
<g id="edge8" class="edge"><title>2&#45;&gt;4</title>
<path fill="none" stroke="grey" stroke-width="2" d="M857.276,-585.575C767.852,-573.005 586.497,-547.514 485.027,-533.251"/>
<polygon fill="grey" stroke="grey" stroke-width="2" points="485.252,-529.748 474.862,-531.822 484.278,-536.68 485.252,-529.748"/>
</g>
<!-- 3 -->
<g id="node4" class="node"><title>3</title>
<path fill="none" stroke="#d87556" stroke-width="2" d="M1506.15,-180C1506.15,-180 1338.04,-180 1338.04,-180 1332.04,-180 1326.04,-174 1326.04,-168 1326.04,-168 1326.04,-156 1326.04,-156 1326.04,-150 1332.04,-144 1338.04,-144 1338.04,-144 1506.15,-144 1506.15,-144 1512.15,-144 1518.15,-150 1518.15,-156 1518.15,-156 1518.15,-168 1518.15,-168 1518.15,-174 1512.15,-180 1506.15,-180"/>
<text text-anchor="middle" x="1422.1" y="-159" font-family="sans" font-size="10.00">report_fastqc_snowhite_from_fastq_sample</text>
</g>
<!-- 9 -->
<g id="node10" class="node"><title>9</title>
<path fill="none" stroke="#d89c56" stroke-width="2" d="M1165.14,-108C1165.14,-108 1073.06,-108 1073.06,-108 1067.06,-108 1061.06,-102 1061.06,-96 1061.06,-96 1061.06,-84 1061.06,-84 1061.06,-78 1067.06,-72 1073.06,-72 1073.06,-72 1165.14,-72 1165.14,-72 1171.14,-72 1177.14,-78 1177.14,-84 1177.14,-84 1177.14,-96 1177.14,-96 1177.14,-102 1171.14,-108 1165.14,-108"/>
<text text-anchor="middle" x="1119.1" y="-87" font-family="sans" font-size="10.00">report_multiqc_snowhite</text>
</g>
<!-- 3&#45;&gt;9 -->
<g id="edge12" class="edge"><title>3&#45;&gt;9</title>
<path fill="none" stroke="grey" stroke-width="2" d="M1343.84,-143.993C1300.35,-134.408 1245.02,-121.994 1187.23,-108.241"/>
<polygon fill="grey" stroke="grey" stroke-width="2" points="1187.72,-104.759 1177.18,-105.841 1186.09,-111.568 1187.72,-104.759"/>
</g>
<!-- 11 -->
<g id="node12" class="node"><title>11</title>
<path fill="none" stroke="#56d88a" stroke-width="2" d="M1443.73,-108C1443.73,-108 1310.47,-108 1310.47,-108 1304.47,-108 1298.47,-102 1298.47,-96 1298.47,-96 1298.47,-84 1298.47,-84 1298.47,-78 1304.47,-72 1310.47,-72 1310.47,-72 1443.73,-72 1443.73,-72 1449.73,-72 1455.73,-78 1455.73,-84 1455.73,-84 1455.73,-96 1455.73,-96 1455.73,-102 1449.73,-108 1443.73,-108"/>
<text text-anchor="middle" x="1377.1" y="-87" font-family="sans" font-size="10.00">report_multiqc_from_fastq_sample</text>
</g>
<!-- 3&#45;&gt;11 -->
<g id="edge15" class="edge"><title>3&#45;&gt;11</title>
<path fill="none" stroke="grey" stroke-width="2" d="M1410.98,-143.697C1405.74,-135.559 1399.4,-125.689 1393.62,-116.701"/>
<polygon fill="grey" stroke="grey" stroke-width="2" points="1396.45,-114.623 1388.09,-108.104 1390.56,-118.409 1396.45,-114.623"/>
</g>
<!-- 15 -->
<g id="node16" class="node"><title>15</title>
<path fill="none" stroke="#56d8b1" stroke-width="2" d="M1244.65,-108C1244.65,-108 1207.55,-108 1207.55,-108 1201.55,-108 1195.55,-102 1195.55,-96 1195.55,-96 1195.55,-84 1195.55,-84 1195.55,-78 1201.55,-72 1207.55,-72 1207.55,-72 1244.65,-72 1244.65,-72 1250.65,-72 1256.65,-78 1256.65,-84 1256.65,-84 1256.65,-96 1256.65,-96 1256.65,-102 1250.65,-108 1244.65,-108"/>
<text text-anchor="middle" x="1226.1" y="-87" font-family="sans" font-size="10.00">multiqc_all</text>
</g>
<!-- 3&#45;&gt;15 -->
<g id="edge29" class="edge"><title>3&#45;&gt;15</title>
<path fill="none" stroke="grey" stroke-width="2" d="M1374.4,-143.966C1341.38,-132.171 1297.89,-116.641 1266.56,-105.451"/>
<polygon fill="grey" stroke="grey" stroke-width="2" points="1267.44,-102.047 1256.84,-101.98 1265.08,-108.64 1267.44,-102.047"/>
</g>
<!-- 18 -->
<g id="node19" class="node"><title>18</title>
<path fill="none" stroke="#56c9d8" stroke-width="2" d="M485.491,-468C485.491,-468 338.707,-468 338.707,-468 332.707,-468 326.707,-462 326.707,-456 326.707,-456 326.707,-444 326.707,-444 326.707,-438 332.707,-432 338.707,-432 338.707,-432 485.491,-432 485.491,-432 491.491,-432 497.491,-438 497.491,-444 497.491,-444 497.491,-456 497.491,-456 497.491,-462 491.491,-468 485.491,-468"/>
<text text-anchor="middle" x="412.099" y="-447" font-family="sans" font-size="10.00">qc_decompress_pyrobayes_fq_sample</text>
</g>
<!-- 4&#45;&gt;18 -->
<g id="edge39" class="edge"><title>4&#45;&gt;18</title>
<path fill="none" stroke="grey" stroke-width="2" d="M412.099,-503.697C412.099,-495.983 412.099,-486.712 412.099,-478.112"/>
<polygon fill="grey" stroke="grey" stroke-width="2" points="415.599,-478.104 412.099,-468.104 408.599,-478.104 415.599,-478.104"/>
</g>
<!-- 25 -->
<g id="node26" class="node"><title>25</title>
<path fill="none" stroke="#d88d56" stroke-width="2" d="M653.255,-180C653.255,-180 488.943,-180 488.943,-180 482.943,-180 476.943,-174 476.943,-168 476.943,-168 476.943,-156 476.943,-156 476.943,-150 482.943,-144 488.943,-144 488.943,-144 653.255,-144 653.255,-144 659.255,-144 665.255,-150 665.255,-156 665.255,-156 665.255,-168 665.255,-168 665.255,-174 659.255,-180 653.255,-180"/>
<text text-anchor="middle" x="571.099" y="-159" font-family="sans" font-size="10.00">report_fastqc_pyrobayes_from_sff_sample</text>
</g>
<!-- 4&#45;&gt;25 -->
<g id="edge45" class="edge"><title>4&#45;&gt;25</title>
<path fill="none" stroke="grey" stroke-width="2" d="M364.728,-503.978C347.657,-495.614 329.75,-483.85 318.099,-468 294.144,-435.41 299.099,-419.447 299.099,-379 299.099,-379 299.099,-379 299.099,-305 299.099,-264.254 291.81,-244.326 321.099,-216 326.749,-210.536 402.765,-194.878 469.504,-181.988"/>
<polygon fill="grey" stroke="grey" stroke-width="2" points="470.539,-185.353 479.698,-180.026 469.217,-178.479 470.539,-185.353"/>
</g>
<!-- 5 -->
<g id="node6" class="node"><title>5</title>
<path fill="none" stroke="#61d856" stroke-width="2" d="M1874.54,-180C1874.54,-180 1727.66,-180 1727.66,-180 1721.66,-180 1715.66,-174 1715.66,-168 1715.66,-168 1715.66,-156 1715.66,-156 1715.66,-150 1721.66,-144 1727.66,-144 1727.66,-144 1874.54,-144 1874.54,-144 1880.54,-144 1886.54,-150 1886.54,-156 1886.54,-156 1886.54,-168 1886.54,-168 1886.54,-174 1880.54,-180 1874.54,-180"/>
<text text-anchor="middle" x="1801.1" y="-159" font-family="sans" font-size="10.00">report_fastqc_raw_from_fastq_sample</text>
</g>
<!-- 5&#45;&gt;0 -->
<g id="edge2" class="edge"><title>5&#45;&gt;0</title>
<path fill="none" stroke="grey" stroke-width="2" d="M1756.09,-143.876C1730.6,-134.179 1698.53,-121.98 1671.62,-111.743"/>
<polygon fill="grey" stroke="grey" stroke-width="2" points="1672.56,-108.353 1661.96,-108.068 1670.07,-114.895 1672.56,-108.353"/>
</g>
<!-- 5&#45;&gt;11 -->
<g id="edge17" class="edge"><title>5&#45;&gt;11</title>
<path fill="none" stroke="grey" stroke-width="2" d="M1715.55,-145.455C1712.7,-144.961 1709.88,-144.474 1707.1,-144 1625.49,-130.069 1532.34,-115.203 1465.87,-104.772"/>
<polygon fill="grey" stroke="grey" stroke-width="2" points="1466.27,-101.293 1455.85,-103.202 1465.19,-108.208 1466.27,-101.293"/>
</g>
<!-- 5&#45;&gt;15 -->
<g id="edge32" class="edge"><title>5&#45;&gt;15</title>
<path fill="none" stroke="grey" stroke-width="2" d="M1715.59,-145.188C1712.73,-144.77 1709.89,-144.372 1707.1,-144 1522.27,-119.381 1472.73,-140.417 1289.1,-108 1281.81,-106.714 1274.14,-104.977 1266.76,-103.104"/>
<polygon fill="grey" stroke="grey" stroke-width="2" points="1267.5,-99.6785 1256.94,-100.494 1265.7,-106.444 1267.5,-99.6785"/>
</g>
<!-- 6 -->
<g id="node7" class="node"><title>6</title>
<path fill="none" stroke="#d8c356" stroke-width="2" d="M1295.71,-180C1295.71,-180 1112.49,-180 1112.49,-180 1106.49,-180 1100.49,-174 1100.49,-168 1100.49,-168 1100.49,-156 1100.49,-156 1100.49,-150 1106.49,-144 1112.49,-144 1112.49,-144 1295.71,-144 1295.71,-144 1301.71,-144 1307.71,-150 1307.71,-156 1307.71,-156 1307.71,-168 1307.71,-168 1307.71,-174 1301.71,-180 1295.71,-180"/>
<text text-anchor="middle" x="1204.1" y="-159" font-family="sans" font-size="10.00">report_fastqc_trimmomatic_from_fastq_sample</text>
</g>
<!-- 6&#45;&gt;11 -->
<g id="edge16" class="edge"><title>6&#45;&gt;11</title>
<path fill="none" stroke="grey" stroke-width="2" d="M1246.42,-143.876C1270.28,-134.222 1300.27,-122.087 1325.5,-111.878"/>
<polygon fill="grey" stroke="grey" stroke-width="2" points="1326.96,-115.064 1334.92,-108.068 1324.33,-108.575 1326.96,-115.064"/>
</g>
<!-- 6&#45;&gt;15 -->
<g id="edge28" class="edge"><title>6&#45;&gt;15</title>
<path fill="none" stroke="grey" stroke-width="2" d="M1209.54,-143.697C1211.99,-135.898 1214.94,-126.509 1217.67,-117.829"/>
<polygon fill="grey" stroke="grey" stroke-width="2" points="1221.06,-118.694 1220.72,-108.104 1214.39,-116.595 1221.06,-118.694"/>
</g>
<!-- 31 -->
<g id="node32" class="node"><title>31</title>
<path fill="none" stroke="#5663d8" stroke-width="2" d="M1031.19,-108C1031.19,-108 923.008,-108 923.008,-108 917.008,-108 911.008,-102 911.008,-96 911.008,-96 911.008,-84 911.008,-84 911.008,-78 917.008,-72 923.008,-72 923.008,-72 1031.19,-72 1031.19,-72 1037.19,-72 1043.19,-78 1043.19,-84 1043.19,-84 1043.19,-96 1043.19,-96 1043.19,-102 1037.19,-108 1031.19,-108"/>
<text text-anchor="middle" x="977.099" y="-87" font-family="sans" font-size="10.00">report_multiqc_trimmomatic</text>
</g>
<!-- 6&#45;&gt;31 -->
<g id="edge52" class="edge"><title>6&#45;&gt;31</title>
<path fill="none" stroke="grey" stroke-width="2" d="M1148.86,-143.966C1116.73,-134.057 1076.05,-121.514 1042.35,-111.121"/>
<polygon fill="grey" stroke="grey" stroke-width="2" points="1043.17,-107.713 1032.59,-108.111 1041.11,-114.402 1043.17,-107.713"/>
</g>
<!-- 7 -->
<g id="node8" class="node"><title>7</title>
<path fill="none" stroke="#88d856" stroke-width="2" d="M1686.15,-180C1686.15,-180 1548.05,-180 1548.05,-180 1542.05,-180 1536.05,-174 1536.05,-168 1536.05,-168 1536.05,-156 1536.05,-156 1536.05,-150 1542.05,-144 1548.05,-144 1548.05,-144 1686.15,-144 1686.15,-144 1692.15,-144 1698.15,-150 1698.15,-156 1698.15,-156 1698.15,-168 1698.15,-168 1698.15,-174 1692.15,-180 1686.15,-180"/>
<text text-anchor="middle" x="1617.1" y="-159" font-family="sans" font-size="10.00">report_fastqc_raw_from_sff_sample</text>
</g>
<!-- 7&#45;&gt;0 -->
<g id="edge1" class="edge"><title>7&#45;&gt;0</title>
<path fill="none" stroke="grey" stroke-width="2" d="M1617.1,-143.697C1617.1,-135.983 1617.1,-126.712 1617.1,-118.112"/>
<polygon fill="grey" stroke="grey" stroke-width="2" points="1620.6,-118.104 1617.1,-108.104 1613.6,-118.104 1620.6,-118.104"/>
</g>
<!-- 7&#45;&gt;15 -->
<g id="edge30" class="edge"><title>7&#45;&gt;15</title>
<path fill="none" stroke="grey" stroke-width="2" d="M1535.69,-145.484C1532.79,-144.976 1529.92,-144.48 1527.1,-144 1421.63,-126.069 1393.8,-129.971 1289.1,-108 1281.78,-106.464 1274.05,-104.591 1266.6,-102.655"/>
<polygon fill="grey" stroke="grey" stroke-width="2" points="1267.26,-99.2071 1256.69,-100.004 1265.45,-105.969 1267.26,-99.2071"/>
</g>
<!-- 17 -->
<g id="node18" class="node"><title>17</title>
<path fill="none" stroke="#56d8d0" stroke-width="2" d="M881.339,-108C881.339,-108 756.859,-108 756.859,-108 750.859,-108 744.859,-102 744.859,-96 744.859,-96 744.859,-84 744.859,-84 744.859,-78 750.859,-72 756.859,-72 756.859,-72 881.339,-72 881.339,-72 887.339,-72 893.339,-78 893.339,-84 893.339,-84 893.339,-96 893.339,-96 893.339,-102 887.339,-108 881.339,-108"/>
<text text-anchor="middle" x="819.099" y="-87" font-family="sans" font-size="10.00">report_multiqc_from_sff_sample</text>
</g>
<!-- 7&#45;&gt;17 -->
<g id="edge35" class="edge"><title>7&#45;&gt;17</title>
<path fill="none" stroke="grey" stroke-width="2" d="M1535.74,-145.144C1532.83,-144.732 1529.94,-144.349 1527.1,-144 1254.3,-110.522 1179.81,-143.191 903.989,-108.134"/>
<polygon fill="grey" stroke="grey" stroke-width="2" points="904.036,-104.611 893.67,-106.803 903.14,-111.554 904.036,-104.611"/>
</g>
<!-- 8 -->
<g id="node9" class="node"><title>8</title>
<path fill="none" stroke="#d87d56" stroke-width="2" d="M620.676,-468C620.676,-468 527.522,-468 527.522,-468 521.522,-468 515.522,-462 515.522,-456 515.522,-456 515.522,-444 515.522,-444 515.522,-438 521.522,-432 527.522,-432 527.522,-432 620.676,-432 620.676,-432 626.676,-432 632.676,-438 632.676,-444 632.676,-444 632.676,-456 632.676,-456 632.676,-462 626.676,-468 620.676,-468"/>
<text text-anchor="middle" x="574.099" y="-447" font-family="sans" font-size="10.00">raw_make_link_adaptors</text>
</g>
<!-- 8&#45;&gt;1 -->
<g id="edge5" class="edge"><title>8&#45;&gt;1</title>
<path fill="none" stroke="grey" stroke-width="2" d="M561.157,-431.74C544.954,-411.399 515.267,-378.087 482.099,-360 420.388,-326.349 394.681,-346.527 328.099,-324 180.367,-274.017 92.7802,-310.967 8.09901,-180 -34.0198,-114.86 99.872,-97.3649 180.166,-92.6883"/>
<polygon fill="grey" stroke="grey" stroke-width="2" points="180.836,-96.1577 190.636,-92.1327 180.465,-89.1676 180.836,-96.1577"/>
</g>
<!-- 20 -->
<g id="node21" class="node"><title>20</title>
<path fill="none" stroke="#78d856" stroke-width="2" d="M460.952,-396C460.952,-396 345.246,-396 345.246,-396 339.246,-396 333.246,-390 333.246,-384 333.246,-384 333.246,-372 333.246,-372 333.246,-366 339.246,-360 345.246,-360 345.246,-360 460.952,-360 460.952,-360 466.952,-360 472.952,-366 472.952,-372 472.952,-372 472.952,-384 472.952,-384 472.952,-390 466.952,-396 460.952,-396"/>
<text text-anchor="middle" x="403.099" y="-375" font-family="sans" font-size="10.00">qc_snowhite_from_sff_sample</text>
</g>
<!-- 8&#45;&gt;20 -->
<g id="edge41" class="edge"><title>8&#45;&gt;20</title>
<path fill="none" stroke="grey" stroke-width="2" d="M532.268,-431.876C508.683,-422.222 479.039,-410.087 454.1,-399.878"/>
<polygon fill="grey" stroke="grey" stroke-width="2" points="455.375,-396.618 444.794,-396.068 452.723,-403.096 455.375,-396.618"/>
</g>
<!-- 30 -->
<g id="node31" class="node"><title>30</title>
<path fill="none" stroke="#bed856" stroke-width="2" d="M1348.34,-396C1348.34,-396 1223.86,-396 1223.86,-396 1217.86,-396 1211.86,-390 1211.86,-384 1211.86,-384 1211.86,-372 1211.86,-372 1211.86,-366 1217.86,-360 1223.86,-360 1223.86,-360 1348.34,-360 1348.34,-360 1354.34,-360 1360.34,-366 1360.34,-372 1360.34,-372 1360.34,-384 1360.34,-384 1360.34,-390 1354.34,-396 1348.34,-396"/>
<text text-anchor="middle" x="1286.1" y="-375" font-family="sans" font-size="10.00">qc_snowhite_from_fastq_sample</text>
</g>
<!-- 8&#45;&gt;30 -->
<g id="edge51" class="edge"><title>8&#45;&gt;30</title>
<path fill="none" stroke="grey" stroke-width="2" d="M632.668,-443.242C758.548,-430.866 1055.3,-401.691 1201.58,-387.31"/>
<polygon fill="grey" stroke="grey" stroke-width="2" points="1202.24,-390.762 1211.84,-386.3 1201.55,-383.796 1202.24,-390.762"/>
</g>
<!-- 9&#45;&gt;13 -->
<g id="edge24" class="edge"><title>9&#45;&gt;13</title>
<path fill="none" stroke="grey" stroke-width="2" d="M1101.55,-71.6966C1092.86,-63.135 1082.24,-52.6562 1072.75,-43.3045"/>
<polygon fill="grey" stroke="grey" stroke-width="2" points="1075.03,-40.6327 1065.45,-36.1043 1070.11,-45.6175 1075.03,-40.6327"/>
</g>
<!-- 10 -->
<g id="node11" class="node"><title>10</title>
<path fill="none" stroke="#d8ac56" stroke-width="2" d="M1334.67,-612C1334.67,-612 1241.52,-612 1241.52,-612 1235.52,-612 1229.52,-606 1229.52,-600 1229.52,-600 1229.52,-588 1229.52,-588 1229.52,-582 1235.52,-576 1241.52,-576 1241.52,-576 1334.67,-576 1334.67,-576 1340.67,-576 1346.67,-582 1346.67,-588 1346.67,-588 1346.67,-600 1346.67,-600 1346.67,-606 1340.67,-612 1334.67,-612"/>
<text text-anchor="middle" x="1288.1" y="-591" font-family="sans" font-size="10.00">raw_sff_to_fastq_sample</text>
</g>
<!-- 10&#45;&gt;7 -->
<g id="edge11" class="edge"><title>10&#45;&gt;7</title>
<path fill="none" stroke="grey" stroke-width="2" d="M1346.71,-585.694C1420.61,-572.83 1538.1,-538.602 1538.1,-451 1538.1,-451 1538.1,-451 1538.1,-305 1538.1,-259.236 1569.82,-214.453 1593.06,-187.783"/>
<polygon fill="grey" stroke="grey" stroke-width="2" points="1595.88,-189.884 1599.96,-180.106 1590.67,-185.206 1595.88,-189.884"/>
</g>
<!-- 11&#45;&gt;13 -->
<g id="edge25" class="edge"><title>11&#45;&gt;13</title>
<path fill="none" stroke="grey" stroke-width="2" d="M1298.3,-72.2333C1230.89,-57.8919 1136.85,-37.8839 1085.4,-26.9358"/>
<polygon fill="grey" stroke="grey" stroke-width="2" points="1085.9,-23.4646 1075.39,-24.8068 1084.44,-30.3114 1085.9,-23.4646"/>
</g>
<!-- 12 -->
<g id="node13" class="node"><title>12</title>
<path fill="none" stroke="#56d85b" stroke-width="2" d="M212.71,-180C212.71,-180 29.4876,-180 29.4876,-180 23.4876,-180 17.4876,-174 17.4876,-168 17.4876,-168 17.4876,-156 17.4876,-156 17.4876,-150 23.4876,-144 29.4876,-144 29.4876,-144 212.71,-144 212.71,-144 218.71,-144 224.71,-150 224.71,-156 224.71,-156 224.71,-168 224.71,-168 224.71,-174 218.71,-180 212.71,-180"/>
<text text-anchor="middle" x="121.099" y="-159" font-family="sans" font-size="10.00">qc_decompress_trimmomatic_from_sff_sample</text>
</g>
<!-- 12&#45;&gt;1 -->
<g id="edge4" class="edge"><title>12&#45;&gt;1</title>
<path fill="none" stroke="grey" stroke-width="2" d="M149.231,-143.876C164.267,-134.724 182.966,-123.342 199.159,-113.485"/>
<polygon fill="grey" stroke="grey" stroke-width="2" points="201.137,-116.379 207.859,-108.19 197.497,-110.4 201.137,-116.379"/>
</g>
<!-- 14 -->
<g id="node15" class="node"><title>14</title>
<path fill="none" stroke="#56a9d8" stroke-width="2" d="M1349.5,-324C1349.5,-324 1222.7,-324 1222.7,-324 1216.7,-324 1210.7,-318 1210.7,-312 1210.7,-312 1210.7,-300 1210.7,-300 1210.7,-294 1216.7,-288 1222.7,-288 1222.7,-288 1349.5,-288 1349.5,-288 1355.5,-288 1361.5,-294 1361.5,-300 1361.5,-300 1361.5,-312 1361.5,-312 1361.5,-318 1355.5,-324 1349.5,-324"/>
<text text-anchor="middle" x="1286.1" y="-303" font-family="sans" font-size="10.00">qc_compress_from_fastq_sample</text>
</g>
<!-- 14&#45;&gt;3 -->
<g id="edge7" class="edge"><title>14&#45;&gt;3</title>
<path fill="none" stroke="grey" stroke-width="2" d="M1302.5,-287.871C1326.4,-262.924 1370.91,-216.45 1398.37,-187.773"/>
<polygon fill="grey" stroke="grey" stroke-width="2" points="1401.25,-189.832 1405.64,-180.189 1396.19,-184.99 1401.25,-189.832"/>
</g>
<!-- 21 -->
<g id="node22" class="node"><title>21</title>
<path fill="none" stroke="#5692d8" stroke-width="2" d="M1274.4,-252C1274.4,-252 1133.8,-252 1133.8,-252 1127.8,-252 1121.8,-246 1121.8,-240 1121.8,-240 1121.8,-228 1121.8,-228 1121.8,-222 1127.8,-216 1133.8,-216 1133.8,-216 1274.4,-216 1274.4,-216 1280.4,-216 1286.4,-222 1286.4,-228 1286.4,-228 1286.4,-240 1286.4,-240 1286.4,-246 1280.4,-252 1274.4,-252"/>
<text text-anchor="middle" x="1204.1" y="-231" font-family="sans" font-size="10.00">qc_trimmomatic_from_fastq_sample</text>
</g>
<!-- 14&#45;&gt;21 -->
<g id="edge42" class="edge"><title>14&#45;&gt;21</title>
<path fill="none" stroke="grey" stroke-width="2" d="M1265.83,-287.697C1255.6,-278.965 1243.04,-268.24 1231.92,-258.75"/>
<polygon fill="grey" stroke="grey" stroke-width="2" points="1234.01,-255.935 1224.14,-252.104 1229.47,-261.259 1234.01,-255.935"/>
</g>
<!-- 15&#45;&gt;13 -->
<g id="edge19" class="edge"><title>15&#45;&gt;13</title>
<path fill="none" stroke="grey" stroke-width="2" d="M1195.13,-75.7133C1192.09,-74.4439 1189.04,-73.1881 1186.1,-72 1151.83,-58.1433 1112.45,-43.1034 1084.54,-32.5972"/>
<polygon fill="grey" stroke="grey" stroke-width="2" points="1085.77,-29.3202 1075.18,-29.0794 1083.31,-35.8729 1085.77,-29.3202"/>
</g>
<!-- 16 -->
<g id="node17" class="node"><title>16</title>
<path fill="none" stroke="#56d8c1" stroke-width="2" d="M869.319,-180C869.319,-180 694.879,-180 694.879,-180 688.879,-180 682.879,-174 682.879,-168 682.879,-168 682.879,-156 682.879,-156 682.879,-150 688.879,-144 694.879,-144 694.879,-144 869.319,-144 869.319,-144 875.319,-144 881.319,-150 881.319,-156 881.319,-156 881.319,-168 881.319,-168 881.319,-174 875.319,-180 869.319,-180"/>
<text text-anchor="middle" x="782.099" y="-159" font-family="sans" font-size="10.00">report_fastqc_trimmomatic_from_sff_sample</text>
</g>
<!-- 16&#45;&gt;17 -->
<g id="edge38" class="edge"><title>16&#45;&gt;17</title>
<path fill="none" stroke="grey" stroke-width="2" d="M791.245,-143.697C795.502,-135.644 800.655,-125.894 805.365,-116.982"/>
<polygon fill="grey" stroke="grey" stroke-width="2" points="808.479,-118.581 810.058,-108.104 802.291,-115.31 808.479,-118.581"/>
</g>
<!-- 16&#45;&gt;31 -->
<g id="edge53" class="edge"><title>16&#45;&gt;31</title>
<path fill="none" stroke="grey" stroke-width="2" d="M829.801,-143.876C857.051,-134.094 891.396,-121.765 920.065,-111.474"/>
<polygon fill="grey" stroke="grey" stroke-width="2" points="921.322,-114.741 929.552,-108.068 918.957,-108.153 921.322,-114.741"/>
</g>
<!-- 17&#45;&gt;13 -->
<g id="edge22" class="edge"><title>17&#45;&gt;13</title>
<path fill="none" stroke="grey" stroke-width="2" d="M874.826,-71.9656C917.181,-59.0186 974.257,-41.5718 1011.12,-30.3036"/>
<polygon fill="grey" stroke="grey" stroke-width="2" points="1012.41,-33.5685 1020.95,-27.298 1010.37,-26.8742 1012.41,-33.5685"/>
</g>
<!-- 18&#45;&gt;20 -->
<g id="edge40" class="edge"><title>18&#45;&gt;20</title>
<path fill="none" stroke="grey" stroke-width="2" d="M409.874,-431.697C408.882,-423.983 407.691,-414.712 406.585,-406.112"/>
<polygon fill="grey" stroke="grey" stroke-width="2" points="410.045,-405.576 405.298,-396.104 403.102,-406.469 410.045,-405.576"/>
</g>
<!-- 19 -->
<g id="node20" class="node"><title>19</title>
<path fill="none" stroke="#56b9d8" stroke-width="2" d="M1150.67,-684C1150.67,-684 1047.52,-684 1047.52,-684 1041.52,-684 1035.52,-678 1035.52,-672 1035.52,-672 1035.52,-660 1035.52,-660 1035.52,-654 1041.52,-648 1047.52,-648 1047.52,-648 1150.67,-648 1150.67,-648 1156.67,-648 1162.67,-654 1162.67,-660 1162.67,-660 1162.67,-672 1162.67,-672 1162.67,-678 1156.67,-684 1150.67,-684"/>
<text text-anchor="middle" x="1099.1" y="-663" font-family="sans" font-size="10.00">raw_make_link_sff_sample</text>
</g>
<!-- 19&#45;&gt;2 -->
<g id="edge6" class="edge"><title>19&#45;&gt;2</title>
<path fill="none" stroke="grey" stroke-width="2" d="M1052.86,-647.876C1026.57,-638.137 993.455,-625.872 965.741,-615.608"/>
<polygon fill="grey" stroke="grey" stroke-width="2" points="966.777,-612.259 956.183,-612.068 964.345,-618.824 966.777,-612.259"/>
</g>
<!-- 19&#45;&gt;10 -->
<g id="edge14" class="edge"><title>19&#45;&gt;10</title>
<path fill="none" stroke="grey" stroke-width="2" d="M1145.33,-647.876C1171.63,-638.137 1204.74,-625.872 1232.46,-615.608"/>
<polygon fill="grey" stroke="grey" stroke-width="2" points="1233.85,-618.824 1242.01,-612.068 1231.42,-612.259 1233.85,-618.824"/>
</g>
<!-- 26 -->
<g id="node27" class="node"><title>26</title>
<path fill="none" stroke="#569ad8" stroke-width="2" d="M466.612,-324C466.612,-324 349.586,-324 349.586,-324 343.586,-324 337.586,-318 337.586,-312 337.586,-312 337.586,-300 337.586,-300 337.586,-294 343.586,-288 349.586,-288 349.586,-288 466.612,-288 466.612,-288 472.612,-288 478.612,-294 478.612,-300 478.612,-300 478.612,-312 478.612,-312 478.612,-318 472.612,-324 466.612,-324"/>
<text text-anchor="middle" x="408.099" y="-303" font-family="sans" font-size="10.00">qc_compress_from_sff_sample</text>
</g>
<!-- 20&#45;&gt;26 -->
<g id="edge46" class="edge"><title>20&#45;&gt;26</title>
<path fill="none" stroke="grey" stroke-width="2" d="M404.335,-359.697C404.886,-351.983 405.548,-342.712 406.162,-334.112"/>
<polygon fill="grey" stroke="grey" stroke-width="2" points="409.656,-334.328 406.877,-324.104 402.674,-333.83 409.656,-334.328"/>
</g>
<!-- 21&#45;&gt;6 -->
<g id="edge10" class="edge"><title>21&#45;&gt;6</title>
<path fill="none" stroke="grey" stroke-width="2" d="M1204.1,-215.697C1204.1,-207.983 1204.1,-198.712 1204.1,-190.112"/>
<polygon fill="grey" stroke="grey" stroke-width="2" points="1207.6,-190.104 1204.1,-180.104 1200.6,-190.104 1207.6,-190.104"/>
</g>
<!-- 23 -->
<g id="node24" class="node"><title>23</title>
<path fill="none" stroke="#ced856" stroke-width="2" d="M447.6,-180C447.6,-180 254.598,-180 254.598,-180 248.598,-180 242.598,-174 242.598,-168 242.598,-168 242.598,-156 242.598,-156 242.598,-150 248.598,-144 254.598,-144 254.598,-144 447.6,-144 447.6,-144 453.6,-144 459.6,-150 459.6,-156 459.6,-156 459.6,-168 459.6,-168 459.6,-174 453.6,-180 447.6,-180"/>
<text text-anchor="middle" x="351.099" y="-159" font-family="sans" font-size="10.00">qc_decompress_trimmomatic_from_fastq_sample</text>
</g>
<!-- 21&#45;&gt;23 -->
<g id="edge43" class="edge"><title>21&#45;&gt;23</title>
<path fill="none" stroke="grey" stroke-width="2" d="M1121.69,-229.016C987.286,-222.088 712.322,-206.115 469.507,-180.109"/>
<polygon fill="grey" stroke="grey" stroke-width="2" points="469.747,-176.615 459.429,-179.022 468.996,-183.574 469.747,-176.615"/>
</g>
<!-- 22 -->
<g id="node23" class="node"><title>22</title>
<path fill="none" stroke="#d8bc56" stroke-width="2" d="M1773.06,-540C1773.06,-540 1661.14,-540 1661.14,-540 1655.14,-540 1649.14,-534 1649.14,-528 1649.14,-528 1649.14,-516 1649.14,-516 1649.14,-510 1655.14,-504 1661.14,-504 1661.14,-504 1773.06,-504 1773.06,-504 1779.06,-504 1785.06,-510 1785.06,-516 1785.06,-516 1785.06,-528 1785.06,-528 1785.06,-534 1779.06,-540 1773.06,-540"/>
<text text-anchor="middle" x="1717.1" y="-519" font-family="sans" font-size="10.00">raw_make_link_fastq_sample</text>
</g>
<!-- 22&#45;&gt;5 -->
<g id="edge9" class="edge"><title>22&#45;&gt;5</title>
<path fill="none" stroke="grey" stroke-width="2" d="M1725.6,-503.993C1737.87,-477.822 1759.1,-425.79 1759.1,-379 1759.1,-379 1759.1,-379 1759.1,-305 1759.1,-263.145 1776.09,-217.096 1788.45,-189.114"/>
<polygon fill="grey" stroke="grey" stroke-width="2" points="1791.64,-190.558 1792.6,-180.007 1785.27,-187.658 1791.64,-190.558"/>
</g>
<!-- 24 -->
<g id="node25" class="node"><title>24</title>
<path fill="none" stroke="#d86656" stroke-width="2" d="M1425.94,-468C1425.94,-468 1290.26,-468 1290.26,-468 1284.26,-468 1278.26,-462 1278.26,-456 1278.26,-456 1278.26,-444 1278.26,-444 1278.26,-438 1284.26,-432 1290.26,-432 1290.26,-432 1425.94,-432 1425.94,-432 1431.94,-432 1437.94,-438 1437.94,-444 1437.94,-444 1437.94,-456 1437.94,-456 1437.94,-462 1431.94,-468 1425.94,-468"/>
<text text-anchor="middle" x="1358.1" y="-447" font-family="sans" font-size="10.00">qc_decompress_from_fastq_sample</text>
</g>
<!-- 22&#45;&gt;24 -->
<g id="edge44" class="edge"><title>22&#45;&gt;24</title>
<path fill="none" stroke="grey" stroke-width="2" d="M1648.73,-507.669C1591.76,-496.561 1510.18,-480.653 1447.94,-468.517"/>
<polygon fill="grey" stroke="grey" stroke-width="2" points="1448.61,-465.082 1438.12,-466.604 1447.27,-471.953 1448.61,-465.082"/>
</g>
<!-- 23&#45;&gt;1 -->
<g id="edge3" class="edge"><title>23&#45;&gt;1</title>
<path fill="none" stroke="grey" stroke-width="2" d="M322.967,-143.876C307.931,-134.724 289.232,-123.342 273.039,-113.485"/>
<polygon fill="grey" stroke="grey" stroke-width="2" points="274.701,-110.4 264.339,-108.19 271.061,-116.379 274.701,-110.4"/>
</g>
<!-- 24&#45;&gt;30 -->
<g id="edge50" class="edge"><title>24&#45;&gt;30</title>
<path fill="none" stroke="grey" stroke-width="2" d="M1340.3,-431.697C1331.5,-423.135 1320.72,-412.656 1311.1,-403.304"/>
<polygon fill="grey" stroke="grey" stroke-width="2" points="1313.3,-400.566 1303.69,-396.104 1308.42,-405.585 1313.3,-400.566"/>
</g>
<!-- 25&#45;&gt;15 -->
<g id="edge31" class="edge"><title>25&#45;&gt;15</title>
<path fill="none" stroke="grey" stroke-width="2" d="M665.348,-145.083C668.297,-144.7 671.219,-144.338 674.099,-144 897.341,-117.787 962.407,-160.072 1185.38,-107.626"/>
<polygon fill="grey" stroke="grey" stroke-width="2" points="1186.52,-110.953 1195.44,-105.224 1184.9,-104.145 1186.52,-110.953"/>
</g>
<!-- 25&#45;&gt;17 -->
<g id="edge37" class="edge"><title>25&#45;&gt;17</title>
<path fill="none" stroke="grey" stroke-width="2" d="M631.45,-143.966C666.854,-133.972 711.756,-121.298 748.759,-110.854"/>
<polygon fill="grey" stroke="grey" stroke-width="2" points="749.805,-114.196 758.478,-108.111 747.903,-107.459 749.805,-114.196"/>
</g>
<!-- 27 -->
<g id="node28" class="node"><title>27</title>
<path fill="none" stroke="#56d8d8" stroke-width="2" d="M666.627,-108C666.627,-108 569.571,-108 569.571,-108 563.571,-108 557.571,-102 557.571,-96 557.571,-96 557.571,-84 557.571,-84 557.571,-78 563.571,-72 569.571,-72 569.571,-72 666.627,-72 666.627,-72 672.627,-72 678.627,-78 678.627,-84 678.627,-84 678.627,-96 678.627,-96 678.627,-102 672.627,-108 666.627,-108"/>
<text text-anchor="middle" x="618.099" y="-87" font-family="sans" font-size="10.00">report_multiqc_pyrobayes</text>
</g>
<!-- 25&#45;&gt;27 -->
<g id="edge47" class="edge"><title>25&#45;&gt;27</title>
<path fill="none" stroke="grey" stroke-width="2" d="M582.717,-143.697C588.238,-135.474 594.946,-125.483 601.031,-116.421"/>
<polygon fill="grey" stroke="grey" stroke-width="2" points="603.946,-118.358 606.615,-108.104 598.135,-114.456 603.946,-118.358"/>
</g>
<!-- 28 -->
<g id="node29" class="node"><title>28</title>
<path fill="none" stroke="#5682d8" stroke-width="2" d="M1070.76,-180C1070.76,-180 911.434,-180 911.434,-180 905.434,-180 899.434,-174 899.434,-168 899.434,-168 899.434,-156 899.434,-156 899.434,-150 905.434,-144 911.434,-144 911.434,-144 1070.76,-144 1070.76,-144 1076.76,-144 1082.76,-150 1082.76,-156 1082.76,-156 1082.76,-168 1082.76,-168 1082.76,-174 1076.76,-180 1070.76,-180"/>
<text text-anchor="middle" x="991.099" y="-159" font-family="sans" font-size="10.00">report_fastqc_snowhite_from_sff_sample</text>
</g>
<!-- 26&#45;&gt;28 -->
<g id="edge48" class="edge"><title>26&#45;&gt;28</title>
<path fill="none" stroke="grey" stroke-width="2" d="M478.133,-287.942C587.052,-261.413 796.413,-210.419 911.117,-182.481"/>
<polygon fill="grey" stroke="grey" stroke-width="2" points="912.013,-185.865 920.9,-180.098 910.356,-179.064 912.013,-185.865"/>
</g>
<!-- 29 -->
<g id="node30" class="node"><title>29</title>
<path fill="none" stroke="#5673d8" stroke-width="2" d="M474.008,-252C474.008,-252 342.19,-252 342.19,-252 336.19,-252 330.19,-246 330.19,-240 330.19,-240 330.19,-228 330.19,-228 330.19,-222 336.19,-216 342.19,-216 342.19,-216 474.008,-216 474.008,-216 480.008,-216 486.008,-222 486.008,-228 486.008,-228 486.008,-240 486.008,-240 486.008,-246 480.008,-252 474.008,-252"/>
<text text-anchor="middle" x="408.099" y="-231" font-family="sans" font-size="10.00">qc_trimmomatic_from_sff_sample</text>
</g>
<!-- 26&#45;&gt;29 -->
<g id="edge49" class="edge"><title>26&#45;&gt;29</title>
<path fill="none" stroke="grey" stroke-width="2" d="M408.099,-287.697C408.099,-279.983 408.099,-270.712 408.099,-262.112"/>
<polygon fill="grey" stroke="grey" stroke-width="2" points="411.599,-262.104 408.099,-252.104 404.599,-262.104 411.599,-262.104"/>
</g>
<!-- 27&#45;&gt;13 -->
<g id="edge21" class="edge"><title>27&#45;&gt;13</title>
<path fill="none" stroke="grey" stroke-width="2" d="M678.795,-79.1192C769.042,-64.4279 935.951,-37.2567 1010.47,-25.1261"/>
<polygon fill="grey" stroke="grey" stroke-width="2" points="1011.46,-28.5101 1020.77,-23.4488 1010.34,-21.6011 1011.46,-28.5101"/>
</g>
<!-- 28&#45;&gt;9 -->
<g id="edge13" class="edge"><title>28&#45;&gt;9</title>
<path fill="none" stroke="grey" stroke-width="2" d="M1022.41,-143.876C1039.3,-134.639 1060.35,-123.131 1078.48,-113.212"/>
<polygon fill="grey" stroke="grey" stroke-width="2" points="1080.57,-116.059 1087.67,-108.19 1077.21,-109.917 1080.57,-116.059"/>
</g>
<!-- 28&#45;&gt;15 -->
<g id="edge33" class="edge"><title>28&#45;&gt;15</title>
<path fill="none" stroke="grey" stroke-width="2" d="M1063.13,-143.926C1097.84,-135.109 1140.13,-123.512 1185.77,-107.889"/>
<polygon fill="grey" stroke="grey" stroke-width="2" points="1186.95,-111.184 1195.25,-104.602 1184.66,-104.571 1186.95,-111.184"/>
</g>
<!-- 28&#45;&gt;17 -->
<g id="edge36" class="edge"><title>28&#45;&gt;17</title>
<path fill="none" stroke="grey" stroke-width="2" d="M949.023,-143.876C925.301,-134.222 895.483,-122.087 870.398,-111.878"/>
<polygon fill="grey" stroke="grey" stroke-width="2" points="871.62,-108.596 861.038,-108.068 868.981,-115.08 871.62,-108.596"/>
</g>
<!-- 29&#45;&gt;12 -->
<g id="edge18" class="edge"><title>29&#45;&gt;12</title>
<path fill="none" stroke="grey" stroke-width="2" d="M338.258,-215.966C296.85,-205.866 244.216,-193.028 201.136,-182.521"/>
<polygon fill="grey" stroke="grey" stroke-width="2" points="201.798,-179.08 191.253,-180.111 200.139,-185.881 201.798,-179.08"/>
</g>
<!-- 29&#45;&gt;16 -->
<g id="edge34" class="edge"><title>29&#45;&gt;16</title>
<path fill="none" stroke="grey" stroke-width="2" d="M486.046,-218.411C542.625,-207.821 619.676,-193.4 680.989,-181.924"/>
<polygon fill="grey" stroke="grey" stroke-width="2" points="681.891,-185.316 691.076,-180.036 680.603,-178.436 681.891,-185.316"/>
</g>
<!-- 30&#45;&gt;14 -->
<g id="edge27" class="edge"><title>30&#45;&gt;14</title>
<path fill="none" stroke="grey" stroke-width="2" d="M1286.1,-359.697C1286.1,-351.983 1286.1,-342.712 1286.1,-334.112"/>
<polygon fill="grey" stroke="grey" stroke-width="2" points="1289.6,-334.104 1286.1,-324.104 1282.6,-334.104 1289.6,-334.104"/>
</g>
<!-- 31&#45;&gt;13 -->
<g id="edge26" class="edge"><title>31&#45;&gt;13</title>
<path fill="none" stroke="grey" stroke-width="2" d="M994.65,-71.6966C1003.33,-63.135 1013.96,-52.6562 1023.45,-43.3045"/>
<polygon fill="grey" stroke="grey" stroke-width="2" points="1026.09,-45.6175 1030.75,-36.1043 1021.17,-40.6327 1026.09,-45.6175"/>
</g>
</g>
</svg>
